<svg xmlns="http://www.w3.org/2000/svg" width="2000" height="669" viewBox="0 0 2000 669">
<defs>
<filter id="sh" x="-20%" y="-20%" width="140%" height="160%"><feGaussianBlur in="SourceAlpha" stdDeviation="14"/><feOffset dy="16"/><feComponentTransfer><feFuncA type="linear" slope="0.22"/></feComponentTransfer><feMerge><feMergeNode/><feMergeNode in="SourceGraphic"/></feMerge></filter>
</defs>
<rect width="2000" height="669" fill="#F9F7F1"/>
<path d="M-60.0,679 L-60.0,565.9 L-54.7,565.5 L-48.9,565.1 L-42.6,564.5 L-35.7,564.0 L-28.4,563.4 L-20.6,562.8 L-12.4,562.2 L-3.7,561.5 L5.4,560.8 L14.9,560.1 L24.8,559.4 L35.0,558.6 L45.6,557.8 L56.5,556.9 L67.7,556.0 L79.3,555.0 L91.1,554.0 L103.1,552.9 L115.4,551.7 L128.0,550.5 L140.7,549.2 L153.6,547.8 L166.7,546.4 L180.0,544.9 L193.6,543.3 L207.7,541.6 L222.3,539.9 L237.4,538.0 L252.9,536.1 L268.8,534.2 L285.0,532.2 L301.5,530.2 L318.3,528.1 L335.3,526.1 L352.6,524.1 L370.0,522.2 L387.6,520.3 L405.2,518.4 L423.0,516.6 L440.7,514.9 L458.5,513.2 L476.2,511.4 L493.9,509.7 L511.5,507.9 L528.9,506.1 L546.2,504.2 L563.2,502.2 L580.0,500.0 L596.7,497.7 L613.3,495.4 L630.0,492.9 L646.7,490.3 L663.3,487.5 L680.0,484.7 L696.7,481.6 L713.3,478.5 L730.0,475.2 L746.7,471.9 L763.3,468.4 L780.0,464.9 L796.7,461.3 L813.3,457.6 L830.0,454.0 L846.7,450.3 L863.3,446.6 L880.0,442.9 L896.7,439.3 L913.3,435.7 L930.0,432.1 L946.7,428.4 L963.3,424.8 L980.0,421.2 L996.7,417.4 L1013.3,413.4 L1030.0,409.1 L1046.7,404.5 L1063.3,399.7 L1080.0,394.7 L1096.7,389.6 L1113.3,384.3 L1130.0,378.8 L1146.7,373.2 L1163.3,367.6 L1180.0,361.9 L1196.7,356.1 L1213.3,350.4 L1230.0,344.8 L1246.7,339.3 L1263.3,334.0 L1280.0,328.9 L1296.7,324.1 L1313.3,319.6 L1330.0,315.6 L1346.7,312.0 L1363.3,308.9 L1380.0,306.5 L1396.8,304.6 L1413.7,303.2 L1430.8,302.4 L1448.1,302.1 L1465.4,302.2 L1482.8,302.8 L1500.3,303.7 L1517.8,305.0 L1535.3,306.5 L1552.7,308.3 L1570.2,310.2 L1587.5,312.2 L1604.7,314.3 L1621.8,316.3 L1638.8,318.3 L1655.6,320.2 L1672.1,321.9 L1688.4,323.4 L1704.5,324.7 L1720.3,325.8 L1735.7,326.5 L1750.9,327.0 L1765.6,327.2 L1780.0,327.1 L1794.2,326.8 L1808.4,326.4 L1822.7,325.8 L1836.9,325.2 L1851.0,324.5 L1865.0,323.8 L1878.9,323.1 L1892.6,322.4 L1906.1,321.7 L1919.4,321.0 L1932.3,320.4 L1945.0,319.8 L1957.3,319.2 L1969.3,318.7 L1980.8,318.2 L1991.9,317.8 L2002.4,317.4 L2012.5,317.1 L2022.0,316.8 L2030.9,316.5 L2039.2,316.3 L2046.9,316.1 L2053.8,316.0 L2060.0,314.0 L2060.0,679 Z" fill="rgb(236,232,224)" stroke="rgba(0,0,0,0.07)" stroke-width="1"/>
<path d="M-60.0,679 L-60.0,573.3 L-54.7,572.9 L-48.9,572.5 L-42.6,572.1 L-35.7,571.6 L-28.4,571.1 L-20.6,570.5 L-12.4,569.8 L-3.7,569.1 L5.4,568.3 L14.9,567.5 L24.8,566.6 L35.0,565.6 L45.6,564.5 L56.5,563.4 L67.7,562.2 L79.3,560.8 L91.1,559.4 L103.1,557.9 L115.4,556.4 L128.0,554.7 L140.7,553.0 L153.6,551.2 L166.7,549.4 L180.0,547.5 L193.6,545.6 L207.7,543.7 L222.3,541.7 L237.4,539.8 L252.9,537.8 L268.8,535.8 L285.0,533.9 L301.5,532.0 L318.3,530.2 L335.3,528.4 L352.6,526.7 L370.0,525.1 L387.6,523.4 L405.2,521.8 L423.0,520.2 L440.7,518.6 L458.5,516.9 L476.2,515.1 L493.9,513.2 L511.5,511.2 L528.9,509.0 L546.2,506.7 L563.2,504.2 L580.0,501.5 L596.7,498.7 L613.3,495.8 L630.0,492.8 L646.7,489.7 L663.3,486.5 L680.0,483.3 L696.7,480.0 L713.3,476.7 L730.0,473.3 L746.7,470.0 L763.3,466.7 L780.0,463.5 L796.7,460.2 L813.3,457.1 L830.0,454.0 L846.7,450.9 L863.3,448.0 L880.0,445.0 L896.7,442.1 L913.3,439.2 L930.0,436.2 L946.7,433.3 L963.3,430.2 L980.0,427.1 L996.7,423.7 L1013.3,419.9 L1030.0,415.8 L1046.7,411.4 L1063.3,406.7 L1080.0,401.6 L1096.7,396.4 L1113.3,390.9 L1130.0,385.2 L1146.7,379.5 L1163.3,373.6 L1180.0,367.7 L1196.7,361.8 L1213.3,356.0 L1230.0,350.4 L1246.7,344.9 L1263.3,339.7 L1280.0,334.8 L1296.7,330.3 L1313.3,326.2 L1330.0,322.6 L1346.7,319.5 L1363.3,317.0 L1380.0,315.0 L1396.8,313.7 L1413.7,312.8 L1430.8,312.5 L1448.1,312.6 L1465.4,313.0 L1482.8,313.8 L1500.3,314.9 L1517.8,316.2 L1535.3,317.6 L1552.7,319.1 L1570.2,320.6 L1587.5,322.2 L1604.7,323.7 L1621.8,325.0 L1638.8,326.3 L1655.6,327.5 L1672.1,328.4 L1688.4,329.3 L1704.5,329.9 L1720.3,330.3 L1735.7,330.6 L1750.9,330.6 L1765.6,330.4 L1780.0,330.0 L1794.2,329.5 L1808.4,328.9 L1822.7,328.3 L1836.9,327.7 L1851.0,327.1 L1865.0,326.5 L1878.9,326.0 L1892.6,325.5 L1906.1,325.0 L1919.4,324.6 L1932.3,324.2 L1945.0,323.8 L1957.3,323.5 L1969.3,323.2 L1980.8,322.9 L1991.9,322.6 L2002.4,322.3 L2012.5,322.1 L2022.0,321.8 L2030.9,321.6 L2039.2,321.4 L2046.9,321.2 L2053.8,321.1 L2060.0,319.8 L2060.0,679 Z" fill="rgb(233,229,222)" stroke="rgba(0,0,0,0.07)" stroke-width="1"/>
<path d="M-60.0,679 L-60.0,580.0 L-54.7,579.5 L-48.9,579.0 L-42.6,578.4 L-35.7,577.8 L-28.4,577.0 L-20.6,576.2 L-12.4,575.3 L-3.7,574.3 L5.4,573.2 L14.9,572.0 L24.8,570.8 L35.0,569.4 L45.6,568.0 L56.5,566.4 L67.7,564.8 L79.3,563.2 L91.1,561.4 L103.1,559.6 L115.4,557.7 L128.0,555.9 L140.7,553.9 L153.6,552.0 L166.7,550.1 L180.0,548.2 L193.6,546.3 L207.7,544.5 L222.3,542.7 L237.4,540.9 L252.9,539.2 L268.8,537.5 L285.0,535.9 L301.5,534.3 L318.3,532.8 L335.3,531.2 L352.6,529.7 L370.0,528.2 L387.6,526.6 L405.2,524.9 L423.0,523.1 L440.7,521.2 L458.5,519.2 L476.2,516.9 L493.9,514.6 L511.5,512.0 L528.9,509.3 L546.2,506.4 L563.2,503.4 L580.0,500.4 L596.7,497.2 L613.3,494.0 L630.0,490.8 L646.7,487.7 L663.3,484.6 L680.0,481.5 L696.7,478.5 L713.3,475.6 L730.0,472.8 L746.7,470.0 L763.3,467.4 L780.0,464.9 L796.7,462.4 L813.3,460.0 L830.0,457.7 L846.7,455.4 L863.3,453.1 L880.0,450.8 L896.7,448.4 L913.3,445.9 L930.0,443.3 L946.7,440.6 L963.3,437.7 L980.0,434.6 L996.7,431.1 L1013.3,427.3 L1030.0,423.0 L1046.7,418.3 L1063.3,413.3 L1080.0,408.0 L1096.7,402.5 L1113.3,396.9 L1130.0,391.0 L1146.7,385.2 L1163.3,379.3 L1180.0,373.4 L1196.7,367.7 L1213.3,362.2 L1230.0,356.8 L1246.7,351.7 L1263.3,347.0 L1280.0,342.6 L1296.7,338.6 L1313.3,335.0 L1330.0,331.9 L1346.7,329.3 L1363.3,327.2 L1380.0,325.6 L1396.8,324.4 L1413.7,323.8 L1430.8,323.5 L1448.1,323.5 L1465.4,323.7 L1482.8,324.2 L1500.3,324.8 L1517.8,325.5 L1535.3,326.2 L1552.7,327.0 L1570.2,327.7 L1587.5,328.4 L1604.7,329.1 L1621.8,329.8 L1638.8,330.3 L1655.6,330.8 L1672.1,331.3 L1688.4,331.6 L1704.5,331.9 L1720.3,332.2 L1735.7,332.3 L1750.9,332.3 L1765.6,332.1 L1780.0,331.8 L1794.2,331.5 L1808.4,331.1 L1822.7,330.8 L1836.9,330.5 L1851.0,330.2 L1865.0,329.9 L1878.9,329.7 L1892.6,329.5 L1906.1,329.3 L1919.4,329.0 L1932.3,328.8 L1945.0,328.6 L1957.3,328.3 L1969.3,328.0 L1980.8,327.7 L1991.9,327.4 L2002.4,327.0 L2012.5,326.7 L2022.0,326.3 L2030.9,325.9 L2039.2,325.6 L2046.9,325.2 L2053.8,324.9 L2060.0,325.6 L2060.0,679 Z" fill="rgb(230,226,219)" stroke="rgba(0,0,0,0.07)" stroke-width="1"/>
<path d="M-60.0,679 L-60.0,583.4 L-54.7,582.7 L-48.9,582.0 L-42.6,581.1 L-35.7,580.2 L-28.4,579.2 L-20.6,578.1 L-12.4,576.8 L-3.7,575.6 L5.4,574.2 L14.9,572.7 L24.8,571.2 L35.0,569.6 L45.6,568.0 L56.5,566.3 L67.7,564.5 L79.3,562.7 L91.1,560.9 L103.1,559.1 L115.4,557.3 L128.0,555.5 L140.7,553.8 L153.6,552.0 L166.7,550.4 L180.0,548.7 L193.6,547.2 L207.7,545.6 L222.3,544.1 L237.4,542.6 L252.9,541.2 L268.8,539.8 L285.0,538.3 L301.5,536.9 L318.3,535.4 L335.3,533.8 L352.6,532.1 L370.0,530.3 L387.6,528.4 L405.2,526.3 L423.0,524.0 L440.7,521.6 L458.5,519.0 L476.2,516.3 L493.9,513.5 L511.5,510.6 L528.9,507.6 L546.2,504.5 L563.2,501.5 L580.0,498.4 L596.7,495.5 L613.3,492.6 L630.0,489.8 L646.7,487.2 L663.3,484.7 L680.0,482.3 L696.7,480.1 L713.3,478.0 L730.0,476.0 L746.7,474.1 L763.3,472.2 L780.0,470.4 L796.7,468.6 L813.3,466.8 L830.0,465.0 L846.7,463.0 L863.3,461.0 L880.0,458.8 L896.7,456.5 L913.3,454.0 L930.0,451.2 L946.7,448.3 L963.3,445.1 L980.0,441.7 L996.7,437.9 L1013.3,433.7 L1030.0,429.2 L1046.7,424.3 L1063.3,419.1 L1080.0,413.7 L1096.7,408.2 L1113.3,402.6 L1130.0,396.9 L1146.7,391.3 L1163.3,385.7 L1180.0,380.2 L1196.7,375.0 L1213.3,369.9 L1230.0,365.0 L1246.7,360.5 L1263.3,356.2 L1280.0,352.2 L1296.7,348.6 L1313.3,345.3 L1330.0,342.4 L1346.7,339.8 L1363.3,337.6 L1380.0,335.8 L1396.8,334.4 L1413.7,333.3 L1430.8,332.5 L1448.1,331.8 L1465.4,331.4 L1482.8,331.0 L1500.3,330.8 L1517.8,330.6 L1535.3,330.6 L1552.7,330.6 L1570.2,330.6 L1587.5,330.7 L1604.7,330.9 L1621.8,331.1 L1638.8,331.5 L1655.6,331.8 L1672.1,332.2 L1688.4,332.7 L1704.5,333.1 L1720.3,333.6 L1735.7,334.0 L1750.9,334.4 L1765.6,334.6 L1780.0,334.7 L1794.2,334.7 L1808.4,334.7 L1822.7,334.7 L1836.9,334.6 L1851.0,334.6 L1865.0,334.5 L1878.9,334.4 L1892.6,334.3 L1906.1,334.1 L1919.4,333.8 L1932.3,333.5 L1945.0,333.1 L1957.3,332.7 L1969.3,332.2 L1980.8,331.7 L1991.9,331.1 L2002.4,330.5 L2012.5,330.0 L2022.0,329.4 L2030.9,328.8 L2039.2,328.3 L2046.9,327.8 L2053.8,327.4 L2060.0,331.4 L2060.0,679 Z" fill="rgb(227,223,215)" stroke="rgba(0,0,0,0.07)" stroke-width="1"/>
<path d="M-60.0,679 L-60.0,582.6 L-54.7,581.8 L-48.9,580.9 L-42.6,579.9 L-35.7,578.8 L-28.4,577.7 L-20.6,576.5 L-12.4,575.2 L-3.7,573.8 L5.4,572.4 L14.9,570.9 L24.8,569.4 L35.0,567.9 L45.6,566.3 L56.5,564.8 L67.7,563.2 L79.3,561.7 L91.1,560.1 L103.1,558.6 L115.4,557.2 L128.0,555.7 L140.7,554.3 L153.6,552.9 L166.7,551.5 L180.0,550.2 L193.6,548.9 L207.7,547.6 L222.3,546.2 L237.4,544.9 L252.9,543.4 L268.8,541.9 L285.0,540.4 L301.5,538.7 L318.3,536.8 L335.3,534.9 L352.6,532.8 L370.0,530.5 L387.6,528.1 L405.2,525.6 L423.0,522.9 L440.7,520.2 L458.5,517.4 L476.2,514.6 L493.9,511.8 L511.5,509.0 L528.9,506.3 L546.2,503.7 L563.2,501.2 L580.0,498.8 L596.7,496.6 L613.3,494.5 L630.0,492.6 L646.7,490.8 L663.3,489.1 L680.0,487.6 L696.7,486.1 L713.3,484.7 L730.0,483.3 L746.7,481.9 L763.3,480.5 L780.0,479.0 L796.7,477.3 L813.3,475.6 L830.0,473.7 L846.7,471.6 L863.3,469.3 L880.0,466.8 L896.7,464.1 L913.3,461.1 L930.0,458.0 L946.7,454.7 L963.3,451.2 L980.0,447.5 L996.7,443.5 L1013.3,439.2 L1030.0,434.6 L1046.7,429.7 L1063.3,424.7 L1080.0,419.6 L1096.7,414.4 L1113.3,409.1 L1130.0,403.9 L1146.7,398.7 L1163.3,393.6 L1180.0,388.7 L1196.7,383.8 L1213.3,379.1 L1230.0,374.5 L1246.7,370.2 L1263.3,366.0 L1280.0,362.0 L1296.7,358.2 L1313.3,354.6 L1330.0,351.3 L1346.7,348.3 L1363.3,345.5 L1380.0,343.0 L1396.8,340.9 L1413.7,339.0 L1430.8,337.3 L1448.1,335.9 L1465.4,334.6 L1482.8,333.5 L1500.3,332.6 L1517.8,331.9 L1535.3,331.4 L1552.7,331.1 L1570.2,330.9 L1587.5,331.0 L1604.7,331.3 L1621.8,331.7 L1638.8,332.3 L1655.6,333.1 L1672.1,333.9 L1688.4,334.8 L1704.5,335.8 L1720.3,336.7 L1735.7,337.5 L1750.9,338.2 L1765.6,338.8 L1780.0,339.2 L1794.2,339.4 L1808.4,339.5 L1822.7,339.6 L1836.9,339.6 L1851.0,339.5 L1865.0,339.4 L1878.9,339.1 L1892.6,338.8 L1906.1,338.3 L1919.4,337.8 L1932.3,337.2 L1945.0,336.6 L1957.3,335.9 L1969.3,335.2 L1980.8,334.5 L1991.9,333.8 L2002.4,333.0 L2012.5,332.4 L2022.0,331.7 L2030.9,331.1 L2039.2,330.6 L2046.9,330.1 L2053.8,329.7 L2060.0,337.1 L2060.0,679 Z" fill="rgb(222,218,211)" stroke="rgba(0,0,0,0.07)" stroke-width="1"/>
<path d="M-60.0,679 L-60.0,579.4 L-54.7,578.6 L-48.9,577.8 L-42.6,576.8 L-35.7,575.8 L-28.4,574.8 L-20.6,573.7 L-12.4,572.6 L-3.7,571.4 L5.4,570.2 L14.9,569.0 L24.8,567.8 L35.0,566.6 L45.6,565.4 L56.5,564.2 L67.7,563.0 L79.3,561.8 L91.1,560.6 L103.1,559.4 L115.4,558.3 L128.0,557.1 L140.7,555.9 L153.6,554.7 L166.7,553.5 L180.0,552.2 L193.6,550.9 L207.7,549.5 L222.3,548.0 L237.4,546.4 L252.9,544.7 L268.8,542.9 L285.0,540.9 L301.5,538.8 L318.3,536.6 L335.3,534.2 L352.6,531.8 L370.0,529.3 L387.6,526.8 L405.2,524.2 L423.0,521.7 L440.7,519.2 L458.5,516.9 L476.2,514.6 L493.9,512.4 L511.5,510.4 L528.9,508.5 L546.2,506.8 L563.2,505.2 L580.0,503.7 L596.7,502.3 L613.3,501.0 L630.0,499.8 L646.7,498.6 L663.3,497.5 L680.0,496.4 L696.7,495.2 L713.3,494.0 L730.0,492.7 L746.7,491.2 L763.3,489.6 L780.0,487.8 L796.7,485.8 L813.3,483.6 L830.0,481.2 L846.7,478.6 L863.3,475.9 L880.0,473.0 L896.7,469.9 L913.3,466.6 L930.0,463.3 L946.7,459.8 L963.3,456.2 L980.0,452.6 L996.7,448.8 L1013.3,444.7 L1030.0,440.4 L1046.7,435.9 L1063.3,431.3 L1080.0,426.6 L1096.7,421.8 L1113.3,417.0 L1130.0,412.1 L1146.7,407.2 L1163.3,402.4 L1180.0,397.5 L1196.7,392.6 L1213.3,387.8 L1230.0,383.0 L1246.7,378.3 L1263.3,373.7 L1280.0,369.1 L1296.7,364.7 L1313.3,360.4 L1330.0,356.3 L1346.7,352.5 L1363.3,348.9 L1380.0,345.7 L1396.8,342.8 L1413.7,340.3 L1430.8,338.1 L1448.1,336.1 L1465.4,334.5 L1482.8,333.3 L1500.3,332.3 L1517.8,331.7 L1535.3,331.4 L1552.7,331.4 L1570.2,331.7 L1587.5,332.3 L1604.7,333.1 L1621.8,334.1 L1638.8,335.3 L1655.6,336.6 L1672.1,337.9 L1688.4,339.2 L1704.5,340.5 L1720.3,341.7 L1735.7,342.8 L1750.9,343.6 L1765.6,344.2 L1780.0,344.5 L1794.2,344.6 L1808.4,344.6 L1822.7,344.5 L1836.9,344.3 L1851.0,343.9 L1865.0,343.5 L1878.9,342.9 L1892.6,342.3 L1906.1,341.7 L1919.4,341.0 L1932.3,340.3 L1945.0,339.6 L1957.3,338.9 L1969.3,338.2 L1980.8,337.5 L1991.9,337.0 L2002.4,336.4 L2012.5,335.9 L2022.0,335.5 L2030.9,335.2 L2039.2,334.9 L2046.9,334.7 L2053.8,334.5 L2060.0,342.9 L2060.0,679 Z" fill="rgb(218,214,206)" stroke="rgba(0,0,0,0.07)" stroke-width="1"/>
<path d="M-60.0,679 L-60.0,576.5 L-54.7,575.9 L-48.9,575.2 L-42.6,574.5 L-35.7,573.8 L-28.4,573.0 L-20.6,572.2 L-12.4,571.4 L-3.7,570.5 L5.4,569.7 L14.9,568.8 L24.8,567.9 L35.0,567.0 L45.6,566.1 L56.5,565.2 L67.7,564.3 L79.3,563.3 L91.1,562.3 L103.1,561.2 L115.4,560.1 L128.0,559.0 L140.7,557.7 L153.6,556.4 L166.7,555.0 L180.0,553.5 L193.6,551.9 L207.7,550.2 L222.3,548.5 L237.4,546.5 L252.9,544.5 L268.8,542.4 L285.0,540.3 L301.5,538.0 L318.3,535.8 L335.3,533.5 L352.6,531.3 L370.0,529.1 L387.6,527.1 L405.2,525.1 L423.0,523.3 L440.7,521.6 L458.5,520.1 L476.2,518.8 L493.9,517.6 L511.5,516.5 L528.9,515.4 L546.2,514.5 L563.2,513.5 L580.0,512.6 L596.7,511.6 L613.3,510.6 L630.0,509.6 L646.7,508.5 L663.3,507.3 L680.0,506.0 L696.7,504.5 L713.3,502.8 L730.0,501.0 L746.7,499.0 L763.3,496.8 L780.0,494.5 L796.7,492.0 L813.3,489.3 L830.0,486.5 L846.7,483.6 L863.3,480.6 L880.0,477.5 L896.7,474.4 L913.3,471.2 L930.0,468.0 L946.7,464.7 L963.3,461.5 L980.0,458.2 L996.7,454.7 L1013.3,451.0 L1030.0,447.1 L1046.7,443.0 L1063.3,438.7 L1080.0,434.2 L1096.7,429.6 L1113.3,424.8 L1130.0,419.8 L1146.7,414.8 L1163.3,409.6 L1180.0,404.3 L1196.7,398.9 L1213.3,393.4 L1230.0,388.0 L1246.7,382.5 L1263.3,377.1 L1280.0,371.8 L1296.7,366.6 L1313.3,361.7 L1330.0,357.0 L1346.7,352.6 L1363.3,348.6 L1380.0,345.1 L1396.8,342.0 L1413.7,339.4 L1430.8,337.3 L1448.1,335.6 L1465.4,334.3 L1482.8,333.5 L1500.3,333.1 L1517.8,333.1 L1535.3,333.5 L1552.7,334.2 L1570.2,335.2 L1587.5,336.4 L1604.7,337.7 L1621.8,339.2 L1638.8,340.8 L1655.6,342.3 L1672.1,343.8 L1688.4,345.2 L1704.5,346.5 L1720.3,347.6 L1735.7,348.5 L1750.9,349.1 L1765.6,349.4 L1780.0,349.5 L1794.2,349.3 L1808.4,349.1 L1822.7,348.7 L1836.9,348.2 L1851.0,347.7 L1865.0,347.2 L1878.9,346.6 L1892.6,346.1 L1906.1,345.5 L1919.4,345.0 L1932.3,344.5 L1945.0,344.1 L1957.3,343.7 L1969.3,343.4 L1980.8,343.2 L1991.9,343.1 L2002.4,343.0 L2012.5,342.9 L2022.0,343.0 L2030.9,343.0 L2039.2,343.1 L2046.9,343.3 L2053.8,343.5 L2060.0,348.7 L2060.0,679 Z" fill="rgb(213,209,202)" stroke="rgba(0,0,0,0.07)" stroke-width="1"/>
<path d="M-60.0,679 L-60.0,574.6 L-54.7,574.1 L-48.9,573.6 L-42.6,573.1 L-35.7,572.6 L-28.4,572.0 L-20.6,571.4 L-12.4,570.8 L-3.7,570.1 L5.4,569.4 L14.9,568.6 L24.8,567.8 L35.0,567.0 L45.6,566.1 L56.5,565.2 L67.7,564.2 L79.3,563.1 L91.1,561.9 L103.1,560.7 L115.4,559.4 L128.0,557.9 L140.7,556.4 L153.6,554.9 L166.7,553.2 L180.0,551.5 L193.6,549.7 L207.7,547.8 L222.3,545.9 L237.4,544.0 L252.9,542.0 L268.8,540.1 L285.0,538.2 L301.5,536.3 L318.3,534.6 L335.3,533.0 L352.6,531.5 L370.0,530.1 L387.6,529.0 L405.2,527.9 L423.0,527.1 L440.7,526.3 L458.5,525.6 L476.2,525.0 L493.9,524.4 L511.5,523.8 L528.9,523.1 L546.2,522.4 L563.2,521.5 L580.0,520.4 L596.7,519.2 L613.3,517.9 L630.0,516.5 L646.7,514.9 L663.3,513.2 L680.0,511.3 L696.7,509.2 L713.3,507.0 L730.0,504.7 L746.7,502.2 L763.3,499.6 L780.0,497.0 L796.7,494.3 L813.3,491.6 L830.0,488.8 L846.7,486.0 L863.3,483.2 L880.0,480.5 L896.7,477.7 L913.3,474.9 L930.0,472.0 L946.7,469.2 L963.3,466.3 L980.0,463.3 L996.7,460.1 L1013.3,456.5 L1030.0,452.6 L1046.7,448.4 L1063.3,443.9 L1080.0,439.0 L1096.7,433.9 L1113.3,428.6 L1130.0,423.0 L1146.7,417.2 L1163.3,411.2 L1180.0,405.1 L1196.7,398.9 L1213.3,392.6 L1230.0,386.4 L1246.7,380.3 L1263.3,374.3 L1280.0,368.5 L1296.7,363.0 L1313.3,357.8 L1330.0,353.1 L1346.7,348.8 L1363.3,345.1 L1380.0,341.9 L1396.8,339.4 L1413.7,337.4 L1430.8,336.0 L1448.1,335.1 L1465.4,334.6 L1482.8,334.7 L1500.3,335.1 L1517.8,335.9 L1535.3,336.9 L1552.7,338.2 L1570.2,339.7 L1587.5,341.2 L1604.7,342.9 L1621.8,344.5 L1638.8,346.1 L1655.6,347.6 L1672.1,348.9 L1688.4,350.1 L1704.5,351.2 L1720.3,352.0 L1735.7,352.7 L1750.9,353.1 L1765.6,353.2 L1780.0,353.2 L1794.2,353.0 L1808.4,352.7 L1822.7,352.4 L1836.9,352.1 L1851.0,351.8 L1865.0,351.6 L1878.9,351.4 L1892.6,351.2 L1906.1,351.2 L1919.4,351.2 L1932.3,351.2 L1945.0,351.3 L1957.3,351.5 L1969.3,351.8 L1980.8,352.1 L1991.9,352.4 L2002.4,352.7 L2012.5,353.1 L2022.0,353.4 L2030.9,353.8 L2039.2,354.2 L2046.9,354.5 L2053.8,354.9 L2060.0,353.6 L2060.0,679 Z" fill="rgb(207,204,196)" stroke="rgba(0,0,0,0.07)" stroke-width="1"/>
<path d="M-60.0,679 L-60.0,574.8 L-54.7,574.4 L-48.9,574.0 L-42.6,573.5 L-35.7,573.0 L-28.4,572.4 L-20.6,571.8 L-12.4,571.2 L-3.7,570.4 L5.4,569.7 L14.9,568.8 L24.8,567.9 L35.0,566.9 L45.6,565.8 L56.5,564.7 L67.7,563.5 L79.3,562.2 L91.1,560.8 L103.1,559.3 L115.4,557.8 L128.0,556.3 L140.7,554.7 L153.6,553.0 L166.7,551.4 L180.0,549.7 L193.6,548.1 L207.7,546.5 L222.3,544.9 L237.4,543.4 L252.9,542.0 L268.8,540.7 L285.0,539.6 L301.5,538.5 L318.3,537.7 L335.3,536.9 L352.6,536.3 L370.0,535.8 L387.6,535.4 L405.2,535.0 L423.0,534.6 L440.7,534.2 L458.5,533.8 L476.2,533.2 L493.9,532.5 L511.5,531.6 L528.9,530.5 L546.2,529.3 L563.2,527.8 L580.0,526.1 L596.7,524.2 L613.3,522.3 L630.0,520.1 L646.7,517.9 L663.3,515.6 L680.0,513.2 L696.7,510.8 L713.3,508.3 L730.0,505.8 L746.7,503.3 L763.3,500.8 L780.0,498.3 L796.7,495.9 L813.3,493.5 L830.0,491.1 L846.7,488.7 L863.3,486.3 L880.0,484.0 L896.7,481.5 L913.3,479.0 L930.0,476.4 L946.7,473.7 L963.3,470.7 L980.0,467.6 L996.7,464.1 L1013.3,460.2 L1030.0,455.8 L1046.7,451.0 L1063.3,445.8 L1080.0,440.3 L1096.7,434.4 L1113.3,428.3 L1130.0,421.9 L1146.7,415.3 L1163.3,408.7 L1180.0,402.0 L1196.7,395.3 L1213.3,388.7 L1230.0,382.3 L1246.7,376.1 L1263.3,370.2 L1280.0,364.7 L1296.7,359.6 L1313.3,354.9 L1330.0,350.8 L1346.7,347.3 L1363.3,344.3 L1380.0,342.0 L1396.8,340.3 L1413.7,339.2 L1430.8,338.6 L1448.1,338.5 L1465.4,338.7 L1482.8,339.4 L1500.3,340.3 L1517.8,341.4 L1535.3,342.7 L1552.7,344.0 L1570.2,345.5 L1587.5,347.0 L1604.7,348.4 L1621.8,349.8 L1638.8,351.1 L1655.6,352.3 L1672.1,353.5 L1688.4,354.5 L1704.5,355.4 L1720.3,356.2 L1735.7,356.9 L1750.9,357.4 L1765.6,357.7 L1780.0,357.9 L1794.2,358.1 L1808.4,358.2 L1822.7,358.4 L1836.9,358.6 L1851.0,358.9 L1865.0,359.2 L1878.9,359.6 L1892.6,360.1 L1906.1,360.6 L1919.4,361.1 L1932.3,361.6 L1945.0,362.2 L1957.3,362.8 L1969.3,363.3 L1980.8,363.8 L1991.9,364.3 L2002.4,364.8 L2012.5,365.2 L2022.0,365.5 L2030.9,365.8 L2039.2,366.1 L2046.9,366.4 L2053.8,366.6 L2060.0,358.5 L2060.0,679 Z" fill="rgb(202,198,191)" stroke="rgba(0,0,0,0.07)" stroke-width="1"/>
<path d="M-60.0,679 L-60.0,575.7 L-54.7,575.2 L-48.9,574.7 L-42.6,574.1 L-35.7,573.5 L-28.4,572.8 L-20.6,572.1 L-12.4,571.3 L-3.7,570.4 L5.4,569.4 L14.9,568.4 L24.8,567.3 L35.0,566.2 L45.6,564.9 L56.5,563.7 L67.7,562.4 L79.3,561.0 L91.1,559.7 L103.1,558.3 L115.4,556.9 L128.0,555.6 L140.7,554.3 L153.6,553.0 L166.7,551.8 L180.0,550.6 L193.6,549.6 L207.7,548.6 L222.3,547.7 L237.4,547.0 L252.9,546.3 L268.8,545.8 L285.0,545.4 L301.5,545.1 L318.3,544.8 L335.3,544.6 L352.6,544.4 L370.0,544.1 L387.6,543.7 L405.2,543.3 L423.0,542.7 L440.7,541.8 L458.5,540.8 L476.2,539.6 L493.9,538.1 L511.5,536.4 L528.9,534.5 L546.2,532.4 L563.2,530.2 L580.0,527.8 L596.7,525.3 L613.3,522.8 L630.0,520.3 L646.7,517.9 L663.3,515.4 L680.0,513.0 L696.7,510.6 L713.3,508.4 L730.0,506.2 L746.7,504.0 L763.3,501.9 L780.0,499.9 L796.7,497.9 L813.3,495.9 L830.0,493.9 L846.7,491.8 L863.3,489.6 L880.0,487.3 L896.7,484.9 L913.3,482.2 L930.0,479.3 L946.7,476.2 L963.3,472.8 L980.0,469.1 L996.7,465.0 L1013.3,460.4 L1030.0,455.3 L1046.7,449.7 L1063.3,443.8 L1080.0,437.7 L1096.7,431.2 L1113.3,424.6 L1130.0,417.9 L1146.7,411.2 L1163.3,404.5 L1180.0,397.9 L1196.7,391.5 L1213.3,385.3 L1230.0,379.5 L1246.7,373.9 L1263.3,368.8 L1280.0,364.1 L1296.7,359.8 L1313.3,356.1 L1330.0,352.8 L1346.7,350.1 L1363.3,348.0 L1380.0,346.4 L1396.8,345.4 L1413.7,344.8 L1430.8,344.6 L1448.1,344.8 L1465.4,345.2 L1482.8,345.9 L1500.3,346.7 L1517.8,347.7 L1535.3,348.7 L1552.7,349.8 L1570.2,351.0 L1587.5,352.1 L1604.7,353.3 L1621.8,354.5 L1638.8,355.7 L1655.6,356.9 L1672.1,358.1 L1688.4,359.3 L1704.5,360.5 L1720.3,361.7 L1735.7,362.8 L1750.9,363.8 L1765.6,364.7 L1780.0,365.5 L1794.2,366.2 L1808.4,366.9 L1822.7,367.7 L1836.9,368.5 L1851.0,369.3 L1865.0,370.1 L1878.9,370.9 L1892.6,371.7 L1906.1,372.4 L1919.4,373.0 L1932.3,373.6 L1945.0,374.2 L1957.3,374.6 L1969.3,374.9 L1980.8,375.2 L1991.9,375.3 L2002.4,375.4 L2012.5,375.5 L2022.0,375.4 L2030.9,375.3 L2039.2,375.2 L2046.9,375.1 L2053.8,374.9 L2060.0,363.4 L2060.0,679 Z" fill="rgb(196,193,186)" stroke="rgba(0,0,0,0.07)" stroke-width="1"/>
<path d="M-60.0,679 L-60.0,576.0 L-54.7,575.5 L-48.9,574.9 L-42.6,574.2 L-35.7,573.5 L-28.4,572.7 L-20.6,571.9 L-12.4,571.0 L-3.7,570.0 L5.4,569.0 L14.9,568.0 L24.8,567.0 L35.0,565.9 L45.6,564.9 L56.5,563.8 L67.7,562.8 L79.3,561.7 L91.1,560.7 L103.1,559.8 L115.4,558.9 L128.0,558.1 L140.7,557.4 L153.6,556.7 L166.7,556.1 L180.0,555.6 L193.6,555.2 L207.7,554.9 L222.3,554.6 L237.4,554.4 L252.9,554.2 L268.8,554.0 L285.0,553.8 L301.5,553.6 L318.3,553.2 L335.3,552.7 L352.6,552.1 L370.0,551.3 L387.6,550.2 L405.2,549.0 L423.0,547.4 L440.7,545.7 L458.5,543.7 L476.2,541.6 L493.9,539.3 L511.5,536.8 L528.9,534.2 L546.2,531.6 L563.2,529.0 L580.0,526.3 L596.7,523.8 L613.3,521.3 L630.0,518.9 L646.7,516.7 L663.3,514.6 L680.0,512.6 L696.7,510.7 L713.3,508.9 L730.0,507.1 L746.7,505.4 L763.3,503.7 L780.0,501.9 L796.7,500.1 L813.3,498.1 L830.0,496.1 L846.7,493.8 L863.3,491.4 L880.0,488.7 L896.7,485.8 L913.3,482.6 L930.0,479.1 L946.7,475.4 L963.3,471.3 L980.0,467.0 L996.7,462.3 L1013.3,457.2 L1030.0,451.7 L1046.7,445.8 L1063.3,439.8 L1080.0,433.6 L1096.7,427.3 L1113.3,421.0 L1130.0,414.7 L1146.7,408.6 L1163.3,402.6 L1180.0,396.8 L1196.7,391.2 L1213.3,386.0 L1230.0,381.0 L1246.7,376.4 L1263.3,372.2 L1280.0,368.3 L1296.7,364.9 L1313.3,361.8 L1330.0,359.1 L1346.7,356.9 L1363.3,355.0 L1380.0,353.7 L1396.8,352.7 L1413.7,352.0 L1430.8,351.7 L1448.1,351.6 L1465.4,351.7 L1482.8,352.0 L1500.3,352.5 L1517.8,353.1 L1535.3,353.9 L1552.7,354.8 L1570.2,355.8 L1587.5,356.9 L1604.7,358.2 L1621.8,359.6 L1638.8,361.1 L1655.6,362.8 L1672.1,364.5 L1688.4,366.3 L1704.5,368.1 L1720.3,369.9 L1735.7,371.6 L1750.9,373.2 L1765.6,374.7 L1780.0,376.0 L1794.2,377.1 L1808.4,378.2 L1822.7,379.2 L1836.9,380.1 L1851.0,381.0 L1865.0,381.7 L1878.9,382.3 L1892.6,382.8 L1906.1,383.2 L1919.4,383.4 L1932.3,383.5 L1945.0,383.4 L1957.3,383.2 L1969.3,382.9 L1980.8,382.5 L1991.9,382.1 L2002.4,381.5 L2012.5,380.9 L2022.0,380.3 L2030.9,379.7 L2039.2,379.1 L2046.9,378.6 L2053.8,378.1 L2060.0,368.3 L2060.0,679 Z" fill="rgb(190,187,180)" stroke="rgba(0,0,0,0.07)" stroke-width="1"/>
<path d="M-60.0,679 L-60.0,576.3 L-54.7,575.8 L-48.9,575.2 L-42.6,574.6 L-35.7,573.9 L-28.4,573.2 L-20.6,572.5 L-12.4,571.8 L-3.7,571.1 L5.4,570.3 L14.9,569.6 L24.8,568.9 L35.0,568.2 L45.6,567.6 L56.5,567.0 L67.7,566.4 L79.3,565.9 L91.1,565.5 L103.1,565.1 L115.4,564.8 L128.0,564.5 L140.7,564.2 L153.6,564.0 L166.7,563.8 L180.0,563.6 L193.6,563.4 L207.7,563.2 L222.3,562.9 L237.4,562.6 L252.9,562.2 L268.8,561.6 L285.0,560.8 L301.5,559.9 L318.3,558.8 L335.3,557.4 L352.6,555.8 L370.0,554.0 L387.6,551.9 L405.2,549.7 L423.0,547.3 L440.7,544.7 L458.5,542.1 L476.2,539.4 L493.9,536.7 L511.5,534.0 L528.9,531.4 L546.2,528.8 L563.2,526.4 L580.0,524.1 L596.7,521.9 L613.3,519.9 L630.0,518.0 L646.7,516.2 L663.3,514.6 L680.0,513.0 L696.7,511.4 L713.3,509.9 L730.0,508.3 L746.7,506.6 L763.3,504.8 L780.0,502.9 L796.7,500.8 L813.3,498.5 L830.0,496.0 L846.7,493.2 L863.3,490.2 L880.0,487.0 L896.7,483.5 L913.3,479.8 L930.0,475.9 L946.7,471.8 L963.3,467.5 L980.0,463.1 L996.7,458.4 L1013.3,453.5 L1030.0,448.3 L1046.7,442.9 L1063.3,437.5 L1080.0,432.0 L1096.7,426.6 L1113.3,421.2 L1130.0,415.9 L1146.7,410.7 L1163.3,405.7 L1180.0,400.9 L1196.7,396.2 L1213.3,391.8 L1230.0,387.6 L1246.7,383.6 L1263.3,379.8 L1280.0,376.3 L1296.7,373.0 L1313.3,370.0 L1330.0,367.3 L1346.7,364.8 L1363.3,362.7 L1380.0,361.0 L1396.8,359.6 L1413.7,358.5 L1430.8,357.8 L1448.1,357.3 L1465.4,357.1 L1482.8,357.1 L1500.3,357.4 L1517.8,358.0 L1535.3,358.8 L1552.7,359.9 L1570.2,361.2 L1587.5,362.8 L1604.7,364.6 L1621.8,366.6 L1638.8,368.8 L1655.6,371.1 L1672.1,373.4 L1688.4,375.8 L1704.5,378.1 L1720.3,380.3 L1735.7,382.4 L1750.9,384.2 L1765.6,385.8 L1780.0,387.0 L1794.2,388.0 L1808.4,388.8 L1822.7,389.5 L1836.9,389.9 L1851.0,390.2 L1865.0,390.3 L1878.9,390.2 L1892.6,389.9 L1906.1,389.5 L1919.4,388.9 L1932.3,388.2 L1945.0,387.3 L1957.3,386.4 L1969.3,385.4 L1980.8,384.4 L1991.9,383.4 L2002.4,382.3 L2012.5,381.3 L2022.0,380.4 L2030.9,379.5 L2039.2,378.6 L2046.9,377.9 L2053.8,377.2 L2060.0,373.2 L2060.0,679 Z" fill="rgb(184,180,174)" stroke="rgba(0,0,0,0.07)" stroke-width="1"/>
<path d="M-60.0,679 L-60.0,578.3 L-54.7,577.9 L-48.9,577.5 L-42.6,577.1 L-35.7,576.7 L-28.4,576.3 L-20.6,575.9 L-12.4,575.5 L-3.7,575.2 L5.4,574.8 L14.9,574.5 L24.8,574.2 L35.0,573.9 L45.6,573.7 L56.5,573.5 L67.7,573.3 L79.3,573.2 L91.1,573.0 L103.1,572.9 L115.4,572.7 L128.0,572.5 L140.7,572.2 L153.6,571.9 L166.7,571.5 L180.0,571.0 L193.6,570.4 L207.7,569.6 L222.3,568.7 L237.4,567.6 L252.9,566.3 L268.8,564.8 L285.0,563.1 L301.5,561.1 L318.3,559.0 L335.3,556.7 L352.6,554.2 L370.0,551.6 L387.6,548.9 L405.2,546.1 L423.0,543.4 L440.7,540.7 L458.5,538.0 L476.2,535.5 L493.9,533.1 L511.5,530.8 L528.9,528.6 L546.2,526.6 L563.2,524.7 L580.0,522.9 L596.7,521.2 L613.3,519.5 L630.0,518.0 L646.7,516.5 L663.3,515.0 L680.0,513.4 L696.7,511.8 L713.3,510.1 L730.0,508.2 L746.7,506.2 L763.3,503.9 L780.0,501.5 L796.7,498.9 L813.3,496.1 L830.0,493.2 L846.7,490.0 L863.3,486.7 L880.0,483.3 L896.7,479.7 L913.3,476.1 L930.0,472.4 L946.7,468.7 L963.3,464.9 L980.0,461.1 L996.7,457.2 L1013.3,453.2 L1030.0,448.9 L1046.7,444.6 L1063.3,440.2 L1080.0,435.8 L1096.7,431.4 L1113.3,427.0 L1130.0,422.5 L1146.7,418.1 L1163.3,413.8 L1180.0,409.5 L1196.7,405.2 L1213.3,401.0 L1230.0,396.8 L1246.7,392.7 L1263.3,388.7 L1280.0,384.9 L1296.7,381.2 L1313.3,377.7 L1330.0,374.5 L1346.7,371.5 L1363.3,368.9 L1380.0,366.7 L1396.8,364.9 L1413.7,363.5 L1430.8,362.6 L1448.1,362.0 L1465.4,361.8 L1482.8,362.0 L1500.3,362.6 L1517.8,363.6 L1535.3,365.0 L1552.7,366.6 L1570.2,368.6 L1587.5,370.8 L1604.7,373.2 L1621.8,375.7 L1638.8,378.3 L1655.6,380.9 L1672.1,383.5 L1688.4,385.9 L1704.5,388.2 L1720.3,390.2 L1735.7,391.9 L1750.9,393.3 L1765.6,394.3 L1780.0,394.9 L1794.2,395.2 L1808.4,395.3 L1822.7,395.1 L1836.9,394.7 L1851.0,394.1 L1865.0,393.3 L1878.9,392.4 L1892.6,391.4 L1906.1,390.2 L1919.4,389.0 L1932.3,387.7 L1945.0,386.4 L1957.3,385.1 L1969.3,383.8 L1980.8,382.6 L1991.9,381.4 L2002.4,380.4 L2012.5,379.4 L2022.0,378.5 L2030.9,377.7 L2039.2,376.9 L2046.9,376.3 L2053.8,375.8 L2060.0,378.1 L2060.0,679 Z" fill="rgb(177,174,167)" stroke="rgba(0,0,0,0.07)" stroke-width="1"/>
<path d="M-60.0,679 L-60.0,583.7 L-54.7,583.5 L-48.9,583.3 L-42.6,583.2 L-35.7,583.0 L-28.4,582.9 L-20.6,582.7 L-12.4,582.6 L-3.7,582.5 L5.4,582.4 L14.9,582.3 L24.8,582.1 L35.0,582.0 L45.6,581.8 L56.5,581.7 L67.7,581.4 L79.3,581.1 L91.1,580.7 L103.1,580.3 L115.4,579.7 L128.0,579.0 L140.7,578.2 L153.6,577.2 L166.7,576.1 L180.0,574.9 L193.6,573.5 L207.7,571.9 L222.3,570.1 L237.4,568.1 L252.9,566.0 L268.8,563.7 L285.0,561.3 L301.5,558.7 L318.3,556.1 L335.3,553.5 L352.6,550.8 L370.0,548.2 L387.6,545.7 L405.2,543.3 L423.0,541.0 L440.7,538.8 L458.5,536.8 L476.2,534.9 L493.9,533.1 L511.5,531.5 L528.9,529.9 L546.2,528.3 L563.2,526.7 L580.0,525.1 L596.7,523.5 L613.3,521.9 L630.0,520.2 L646.7,518.4 L663.3,516.5 L680.0,514.5 L696.7,512.3 L713.3,510.0 L730.0,507.6 L746.7,505.0 L763.3,502.3 L780.0,499.5 L796.7,496.6 L813.3,493.7 L830.0,490.7 L846.7,487.7 L863.3,484.7 L880.0,481.7 L896.7,478.8 L913.3,476.0 L930.0,473.2 L946.7,470.5 L963.3,467.8 L980.0,465.3 L996.7,462.6 L1013.3,459.7 L1030.0,456.7 L1046.7,453.6 L1063.3,450.3 L1080.0,446.8 L1096.7,443.2 L1113.3,439.5 L1130.0,435.6 L1146.7,431.6 L1163.3,427.5 L1180.0,423.3 L1196.7,419.0 L1213.3,414.6 L1230.0,410.2 L1246.7,405.8 L1263.3,401.5 L1280.0,397.3 L1296.7,393.2 L1313.3,389.4 L1330.0,385.9 L1346.7,382.7 L1363.3,380.0 L1380.0,377.7 L1396.8,375.9 L1413.7,374.7 L1430.8,373.9 L1448.1,373.6 L1465.4,373.7 L1482.8,374.3 L1500.3,375.3 L1517.8,376.6 L1535.3,378.3 L1552.7,380.1 L1570.2,382.2 L1587.5,384.4 L1604.7,386.6 L1621.8,388.9 L1638.8,391.0 L1655.6,393.0 L1672.1,394.8 L1688.4,396.4 L1704.5,397.7 L1720.3,398.8 L1735.7,399.4 L1750.9,399.8 L1765.6,399.8 L1780.0,399.4 L1794.2,398.7 L1808.4,397.9 L1822.7,396.9 L1836.9,395.8 L1851.0,394.6 L1865.0,393.3 L1878.9,392.0 L1892.6,390.6 L1906.1,389.3 L1919.4,388.0 L1932.3,386.8 L1945.0,385.7 L1957.3,384.6 L1969.3,383.6 L1980.8,382.7 L1991.9,382.0 L2002.4,381.3 L2012.5,380.7 L2022.0,380.2 L2030.9,379.8 L2039.2,379.5 L2046.9,379.2 L2053.8,379.0 L2060.0,385.1 L2060.0,679 Z" fill="rgb(171,167,161)" stroke="rgba(0,0,0,0.07)" stroke-width="1"/>
<path d="M-60.0,679 L-60.0,590.7 L-54.7,590.7 L-48.9,590.6 L-42.6,590.5 L-35.7,590.3 L-28.4,590.2 L-20.6,590.0 L-12.4,589.8 L-3.7,589.6 L5.4,589.3 L14.9,589.0 L24.8,588.6 L35.0,588.1 L45.6,587.5 L56.5,586.8 L67.7,586.0 L79.3,585.1 L91.1,584.0 L103.1,582.8 L115.4,581.5 L128.0,580.0 L140.7,578.4 L153.6,576.7 L166.7,574.8 L180.0,572.8 L193.6,570.7 L207.7,568.5 L222.3,566.2 L237.4,563.8 L252.9,561.4 L268.8,558.9 L285.0,556.5 L301.5,554.1 L318.3,551.7 L335.3,549.5 L352.6,547.4 L370.0,545.5 L387.6,543.7 L405.2,542.0 L423.0,540.5 L440.7,539.1 L458.5,537.7 L476.2,536.3 L493.9,535.0 L511.5,533.6 L528.9,532.1 L546.2,530.6 L563.2,528.9 L580.0,527.1 L596.7,525.1 L613.3,523.1 L630.0,520.9 L646.7,518.6 L663.3,516.2 L680.0,513.8 L696.7,511.2 L713.3,508.6 L730.0,506.0 L746.7,503.4 L763.3,500.8 L780.0,498.2 L796.7,495.8 L813.3,493.4 L830.0,491.1 L846.7,488.9 L863.3,486.9 L880.0,485.0 L896.7,483.2 L913.3,481.5 L930.0,479.8 L946.7,478.2 L963.3,476.6 L980.0,475.0 L996.7,473.2 L1013.3,471.1 L1030.0,468.7 L1046.7,466.1 L1063.3,463.1 L1080.0,459.8 L1096.7,456.3 L1113.3,452.5 L1130.0,448.4 L1146.7,444.1 L1163.3,439.6 L1180.0,435.0 L1196.7,430.3 L1213.3,425.6 L1230.0,420.8 L1246.7,416.2 L1263.3,411.6 L1280.0,407.3 L1296.7,403.2 L1313.3,399.5 L1330.0,396.1 L1346.7,393.2 L1363.3,390.8 L1380.0,388.9 L1396.8,387.6 L1413.7,386.7 L1430.8,386.4 L1448.1,386.5 L1465.4,386.9 L1482.8,387.7 L1500.3,388.8 L1517.8,390.1 L1535.3,391.5 L1552.7,393.0 L1570.2,394.5 L1587.5,396.0 L1604.7,397.4 L1621.8,398.6 L1638.8,399.7 L1655.6,400.5 L1672.1,401.1 L1688.4,401.5 L1704.5,401.7 L1720.3,401.6 L1735.7,401.3 L1750.9,400.7 L1765.6,399.9 L1780.0,398.9 L1794.2,397.8 L1808.4,396.6 L1822.7,395.4 L1836.9,394.2 L1851.0,393.0 L1865.0,391.9 L1878.9,390.9 L1892.6,389.9 L1906.1,389.1 L1919.4,388.3 L1932.3,387.7 L1945.0,387.1 L1957.3,386.7 L1969.3,386.3 L1980.8,386.1 L1991.9,385.8 L2002.4,385.7 L2012.5,385.6 L2022.0,385.5 L2030.9,385.4 L2039.2,385.4 L2046.9,385.4 L2053.8,385.5 L2060.0,392.2 L2060.0,679 Z" fill="rgb(164,161,155)" stroke="rgba(0,0,0,0.07)" stroke-width="1"/>
<path d="M-60.0,679 L-60.0,596.3 L-54.7,596.0 L-48.9,595.7 L-42.6,595.4 L-35.7,595.0 L-28.4,594.5 L-20.6,594.0 L-12.4,593.4 L-3.7,592.6 L5.4,591.8 L14.9,590.9 L24.8,589.9 L35.0,588.7 L45.6,587.5 L56.5,586.1 L67.7,584.6 L79.3,583.0 L91.1,581.2 L103.1,579.4 L115.4,577.4 L128.0,575.4 L140.7,573.3 L153.6,571.1 L166.7,569.0 L180.0,566.8 L193.6,564.6 L207.7,562.4 L222.3,560.3 L237.4,558.2 L252.9,556.2 L268.8,554.3 L285.0,552.5 L301.5,550.9 L318.3,549.3 L335.3,548.0 L352.6,546.7 L370.0,545.5 L387.6,544.4 L405.2,543.4 L423.0,542.3 L440.7,541.2 L458.5,540.0 L476.2,538.7 L493.9,537.2 L511.5,535.6 L528.9,533.9 L546.2,531.9 L563.2,529.8 L580.0,527.6 L596.7,525.3 L613.3,522.9 L630.0,520.5 L646.7,518.0 L663.3,515.6 L680.0,513.2 L696.7,510.9 L713.3,508.7 L730.0,506.6 L746.7,504.6 L763.3,502.8 L780.0,501.2 L796.7,499.7 L813.3,498.3 L830.0,497.1 L846.7,496.0 L863.3,495.1 L880.0,494.1 L896.7,493.2 L913.3,492.3 L930.0,491.3 L946.7,490.2 L963.3,488.9 L980.0,487.5 L996.7,485.7 L1013.3,483.6 L1030.0,480.9 L1046.7,477.9 L1063.3,474.6 L1080.0,470.8 L1096.7,466.8 L1113.3,462.4 L1130.0,457.9 L1146.7,453.2 L1163.3,448.3 L1180.0,443.4 L1196.7,438.5 L1213.3,433.7 L1230.0,429.0 L1246.7,424.5 L1263.3,420.3 L1280.0,416.3 L1296.7,412.7 L1313.3,409.5 L1330.0,406.7 L1346.7,404.3 L1363.3,402.5 L1380.0,401.1 L1396.8,400.1 L1413.7,399.5 L1430.8,399.3 L1448.1,399.4 L1465.4,399.6 L1482.8,400.1 L1500.3,400.6 L1517.8,401.1 L1535.3,401.6 L1552.7,402.1 L1570.2,402.5 L1587.5,402.7 L1604.7,402.9 L1621.8,402.9 L1638.8,402.7 L1655.6,402.5 L1672.1,402.1 L1688.4,401.6 L1704.5,401.0 L1720.3,400.4 L1735.7,399.7 L1750.9,399.0 L1765.6,398.1 L1780.0,397.3 L1794.2,396.4 L1808.4,395.6 L1822.7,394.9 L1836.9,394.2 L1851.0,393.7 L1865.0,393.3 L1878.9,393.0 L1892.6,392.8 L1906.1,392.7 L1919.4,392.7 L1932.3,392.7 L1945.0,392.8 L1957.3,392.9 L1969.3,393.0 L1980.8,393.1 L1991.9,393.3 L2002.4,393.4 L2012.5,393.4 L2022.0,393.5 L2030.9,393.6 L2039.2,393.6 L2046.9,393.6 L2053.8,393.6 L2060.0,399.2 L2060.0,679 Z" fill="rgb(157,154,148)" stroke="rgba(0,0,0,0.07)" stroke-width="1"/>
<path d="M-60.0,679 L-60.0,596.8 L-54.7,596.2 L-48.9,595.5 L-42.6,594.8 L-35.7,594.0 L-28.4,593.0 L-20.6,592.0 L-12.4,590.8 L-3.7,589.6 L5.4,588.2 L14.9,586.8 L24.8,585.2 L35.0,583.6 L45.6,581.8 L56.5,580.0 L67.7,578.1 L79.3,576.2 L91.1,574.2 L103.1,572.2 L115.4,570.2 L128.0,568.3 L140.7,566.3 L153.6,564.5 L166.7,562.7 L180.0,560.9 L193.6,559.3 L207.7,557.8 L222.3,556.4 L237.4,555.1 L252.9,553.9 L268.8,552.9 L285.0,551.9 L301.5,551.1 L318.3,550.3 L335.3,549.5 L352.6,548.8 L370.0,547.9 L387.6,547.1 L405.2,546.0 L423.0,544.9 L440.7,543.6 L458.5,542.1 L476.2,540.4 L493.9,538.6 L511.5,536.7 L528.9,534.6 L546.2,532.4 L563.2,530.1 L580.0,527.9 L596.7,525.6 L613.3,523.5 L630.0,521.4 L646.7,519.5 L663.3,517.7 L680.0,516.0 L696.7,514.6 L713.3,513.3 L730.0,512.2 L746.7,511.3 L763.3,510.5 L780.0,509.9 L796.7,509.3 L813.3,508.8 L830.0,508.4 L846.7,507.9 L863.3,507.3 L880.0,506.6 L896.7,505.8 L913.3,504.8 L930.0,503.6 L946.7,502.1 L963.3,500.3 L980.0,498.3 L996.7,495.8 L1013.3,492.9 L1030.0,489.6 L1046.7,486.0 L1063.3,482.0 L1080.0,477.7 L1096.7,473.2 L1113.3,468.5 L1130.0,463.8 L1146.7,459.0 L1163.3,454.3 L1180.0,449.7 L1196.7,445.1 L1213.3,440.8 L1230.0,436.7 L1246.7,432.8 L1263.3,429.2 L1280.0,425.9 L1296.7,423.0 L1313.3,420.3 L1330.0,418.0 L1346.7,416.0 L1363.3,414.3 L1380.0,412.9 L1396.8,411.8 L1413.7,411.0 L1430.8,410.2 L1448.1,409.6 L1465.4,409.0 L1482.8,408.5 L1500.3,407.9 L1517.8,407.3 L1535.3,406.6 L1552.7,405.9 L1570.2,405.1 L1587.5,404.4 L1604.7,403.6 L1621.8,402.8 L1638.8,402.1 L1655.6,401.4 L1672.1,400.8 L1688.4,400.3 L1704.5,399.9 L1720.3,399.5 L1735.7,399.3 L1750.9,399.1 L1765.6,399.0 L1780.0,398.8 L1794.2,398.7 L1808.4,398.7 L1822.7,398.8 L1836.9,399.0 L1851.0,399.2 L1865.0,399.6 L1878.9,399.9 L1892.6,400.3 L1906.1,400.7 L1919.4,401.0 L1932.3,401.4 L1945.0,401.7 L1957.3,401.9 L1969.3,402.1 L1980.8,402.2 L1991.9,402.2 L2002.4,402.2 L2012.5,402.2 L2022.0,402.1 L2030.9,402.0 L2039.2,401.9 L2046.9,401.7 L2053.8,401.6 L2060.0,406.3 L2060.0,679 Z" fill="rgb(150,147,141)" stroke="rgba(0,0,0,0.07)" stroke-width="1"/>
<path d="M-60.0,679 L-60.0,591.4 L-54.7,590.5 L-48.9,589.6 L-42.6,588.5 L-35.7,587.4 L-28.4,586.2 L-20.6,584.8 L-12.4,583.4 L-3.7,582.0 L5.4,580.4 L14.9,578.8 L24.8,577.2 L35.0,575.5 L45.6,573.9 L56.5,572.2 L67.7,570.5 L79.3,568.9 L91.1,567.4 L103.1,565.9 L115.4,564.4 L128.0,563.1 L140.7,561.9 L153.6,560.7 L166.7,559.7 L180.0,558.8 L193.6,558.0 L207.7,557.2 L222.3,556.6 L237.4,556.0 L252.9,555.5 L268.8,555.0 L285.0,554.6 L301.5,554.0 L318.3,553.4 L335.3,552.7 L352.6,551.8 L370.0,550.8 L387.6,549.7 L405.2,548.3 L423.0,546.8 L440.7,545.2 L458.5,543.4 L476.2,541.6 L493.9,539.6 L511.5,537.7 L528.9,535.8 L546.2,534.0 L563.2,532.2 L580.0,530.6 L596.7,529.1 L613.3,527.8 L630.0,526.7 L646.7,525.7 L663.3,524.9 L680.0,524.3 L696.7,523.9 L713.3,523.5 L730.0,523.2 L746.7,523.0 L763.3,522.8 L780.0,522.5 L796.7,522.2 L813.3,521.7 L830.0,521.0 L846.7,520.2 L863.3,519.2 L880.0,517.9 L896.7,516.3 L913.3,514.4 L930.0,512.3 L946.7,509.9 L963.3,507.2 L980.0,504.3 L996.7,501.1 L1013.3,497.6 L1030.0,493.7 L1046.7,489.7 L1063.3,485.5 L1080.0,481.2 L1096.7,476.8 L1113.3,472.4 L1130.0,468.1 L1146.7,463.9 L1163.3,459.8 L1180.0,455.8 L1196.7,452.0 L1213.3,448.4 L1230.0,445.0 L1246.7,441.7 L1263.3,438.7 L1280.0,435.8 L1296.7,433.1 L1313.3,430.6 L1330.0,428.2 L1346.7,426.0 L1363.3,423.9 L1380.0,422.0 L1396.8,420.1 L1413.7,418.4 L1430.8,416.7 L1448.1,415.1 L1465.4,413.5 L1482.8,411.9 L1500.3,410.3 L1517.8,408.8 L1535.3,407.4 L1552.7,406.1 L1570.2,404.9 L1587.5,403.9 L1604.7,403.1 L1621.8,402.5 L1638.8,402.1 L1655.6,402.0 L1672.1,402.0 L1688.4,402.2 L1704.5,402.6 L1720.3,403.2 L1735.7,403.8 L1750.9,404.5 L1765.6,405.1 L1780.0,405.8 L1794.2,406.4 L1808.4,407.0 L1822.7,407.7 L1836.9,408.3 L1851.0,408.9 L1865.0,409.5 L1878.9,410.0 L1892.6,410.4 L1906.1,410.8 L1919.4,411.0 L1932.3,411.2 L1945.0,411.3 L1957.3,411.2 L1969.3,411.1 L1980.8,411.0 L1991.9,410.8 L2002.4,410.5 L2012.5,410.2 L2022.0,410.0 L2030.9,409.7 L2039.2,409.4 L2046.9,409.2 L2053.8,408.9 L2060.0,413.3 L2060.0,679 Z" fill="rgb(143,140,134)" stroke="rgba(0,0,0,0.07)" stroke-width="1"/>
<path d="M-60.0,679 L-60.0,582.7 L-54.7,581.9 L-48.9,580.9 L-42.6,579.9 L-35.7,578.9 L-28.4,577.7 L-20.6,576.6 L-12.4,575.4 L-3.7,574.2 L5.4,573.0 L14.9,571.8 L24.8,570.6 L35.0,569.4 L45.6,568.3 L56.5,567.3 L67.7,566.4 L79.3,565.5 L91.1,564.7 L103.1,563.9 L115.4,563.3 L128.0,562.7 L140.7,562.2 L153.6,561.8 L166.7,561.4 L180.0,561.1 L193.6,560.7 L207.7,560.4 L222.3,560.1 L237.4,559.8 L252.9,559.4 L268.8,558.9 L285.0,558.2 L301.5,557.5 L318.3,556.6 L335.3,555.5 L352.6,554.4 L370.0,553.0 L387.6,551.6 L405.2,550.1 L423.0,548.5 L440.7,547.0 L458.5,545.4 L476.2,544.0 L493.9,542.7 L511.5,541.5 L528.9,540.4 L546.2,539.5 L563.2,538.7 L580.0,538.1 L596.7,537.7 L613.3,537.3 L630.0,537.1 L646.7,537.0 L663.3,536.9 L680.0,536.8 L696.7,536.7 L713.3,536.6 L730.0,536.3 L746.7,535.9 L763.3,535.3 L780.0,534.4 L796.7,533.4 L813.3,532.0 L830.0,530.4 L846.7,528.6 L863.3,526.5 L880.0,524.1 L896.7,521.5 L913.3,518.6 L930.0,515.6 L946.7,512.5 L963.3,509.2 L980.0,505.9 L996.7,502.4 L1013.3,498.8 L1030.0,495.1 L1046.7,491.3 L1063.3,487.5 L1080.0,483.8 L1096.7,480.1 L1113.3,476.4 L1130.0,472.8 L1146.7,469.4 L1163.3,466.0 L1180.0,462.7 L1196.7,459.5 L1213.3,456.3 L1230.0,453.2 L1246.7,450.1 L1263.3,447.0 L1280.0,444.0 L1296.7,441.0 L1313.3,438.0 L1330.0,435.0 L1346.7,432.1 L1363.3,429.3 L1380.0,426.5 L1396.8,423.9 L1413.7,421.4 L1430.8,419.0 L1448.1,416.7 L1465.4,414.5 L1482.8,412.6 L1500.3,410.8 L1517.8,409.3 L1535.3,408.1 L1552.7,407.2 L1570.2,406.6 L1587.5,406.3 L1604.7,406.3 L1621.8,406.6 L1638.8,407.2 L1655.6,408.0 L1672.1,409.0 L1688.4,410.2 L1704.5,411.4 L1720.3,412.6 L1735.7,413.9 L1750.9,415.0 L1765.6,416.1 L1780.0,417.0 L1794.2,417.8 L1808.4,418.4 L1822.7,419.1 L1836.9,419.6 L1851.0,420.0 L1865.0,420.2 L1878.9,420.4 L1892.6,420.5 L1906.1,420.4 L1919.4,420.3 L1932.3,420.1 L1945.0,419.8 L1957.3,419.6 L1969.3,419.2 L1980.8,418.9 L1991.9,418.6 L2002.4,418.3 L2012.5,418.0 L2022.0,417.8 L2030.9,417.6 L2039.2,417.4 L2046.9,417.3 L2053.8,417.2 L2060.0,420.4 L2060.0,679 Z" fill="rgb(135,132,127)" stroke="rgba(0,0,0,0.07)" stroke-width="1"/>
<path d="M-60.0,679 L-60.0,575.0 L-54.7,574.4 L-48.9,573.8 L-42.6,573.1 L-35.7,572.4 L-28.4,571.8 L-20.6,571.1 L-12.4,570.4 L-3.7,569.8 L5.4,569.2 L14.9,568.6 L24.8,568.1 L35.0,567.6 L45.6,567.2 L56.5,566.9 L67.7,566.5 L79.3,566.3 L91.1,566.0 L103.1,565.8 L115.4,565.6 L128.0,565.4 L140.7,565.2 L153.6,564.9 L166.7,564.6 L180.0,564.3 L193.6,563.8 L207.7,563.3 L222.3,562.7 L237.4,562.0 L252.9,561.2 L268.8,560.3 L285.0,559.2 L301.5,558.0 L318.3,556.8 L335.3,555.5 L352.6,554.1 L370.0,552.8 L387.6,551.5 L405.2,550.3 L423.0,549.2 L440.7,548.3 L458.5,547.6 L476.2,547.0 L493.9,546.6 L511.5,546.3 L528.9,546.2 L546.2,546.2 L563.2,546.3 L580.0,546.3 L596.7,546.4 L613.3,546.5 L630.0,546.5 L646.7,546.4 L663.3,546.1 L680.0,545.7 L696.7,545.1 L713.3,544.2 L730.0,543.1 L746.7,541.7 L763.3,540.0 L780.0,538.1 L796.7,535.9 L813.3,533.5 L830.0,530.8 L846.7,527.9 L863.3,524.9 L880.0,521.8 L896.7,518.5 L913.3,515.3 L930.0,511.9 L946.7,508.7 L963.3,505.4 L980.0,502.2 L996.7,499.0 L1013.3,495.8 L1030.0,492.5 L1046.7,489.2 L1063.3,485.9 L1080.0,482.6 L1096.7,479.3 L1113.3,475.9 L1130.0,472.6 L1146.7,469.2 L1163.3,465.7 L1180.0,462.2 L1196.7,458.7 L1213.3,455.0 L1230.0,451.3 L1246.7,447.5 L1263.3,443.7 L1280.0,439.8 L1296.7,436.0 L1313.3,432.2 L1330.0,428.4 L1346.7,424.9 L1363.3,421.5 L1380.0,418.3 L1396.8,415.4 L1413.7,412.8 L1430.8,410.5 L1448.1,408.6 L1465.4,407.0 L1482.8,405.8 L1500.3,405.0 L1517.8,404.5 L1535.3,404.5 L1552.7,404.9 L1570.2,405.6 L1587.5,406.6 L1604.7,407.9 L1621.8,409.4 L1638.8,411.0 L1655.6,412.7 L1672.1,414.5 L1688.4,416.2 L1704.5,417.8 L1720.3,419.3 L1735.7,420.6 L1750.9,421.7 L1765.6,422.6 L1780.0,423.2 L1794.2,423.6 L1808.4,423.9 L1822.7,424.1 L1836.9,424.1 L1851.0,424.1 L1865.0,423.9 L1878.9,423.7 L1892.6,423.4 L1906.1,423.1 L1919.4,422.7 L1932.3,422.4 L1945.0,422.1 L1957.3,421.8 L1969.3,421.6 L1980.8,421.4 L1991.9,421.3 L2002.4,421.3 L2012.5,421.3 L2022.0,421.4 L2030.9,421.5 L2039.2,421.6 L2046.9,421.8 L2053.8,422.0 L2060.0,421.3 L2060.0,679 Z" fill="rgb(128,125,119)" stroke="rgba(0,0,0,0.07)" stroke-width="1"/>
<path d="M-60.0,679 L-60.0,572.9 L-54.7,572.7 L-48.9,572.4 L-42.6,572.2 L-35.7,572.0 L-28.4,571.8 L-20.6,571.7 L-12.4,571.5 L-3.7,571.4 L5.4,571.3 L14.9,571.2 L24.8,571.1 L35.0,571.1 L45.6,571.0 L56.5,570.9 L67.7,570.8 L79.3,570.7 L91.1,570.5 L103.1,570.3 L115.4,570.0 L128.0,569.6 L140.7,569.2 L153.6,568.6 L166.7,567.9 L180.0,567.2 L193.6,566.4 L207.7,565.4 L222.3,564.4 L237.4,563.4 L252.9,562.2 L268.8,561.0 L285.0,559.9 L301.5,558.7 L318.3,557.6 L335.3,556.6 L352.6,555.7 L370.0,555.0 L387.6,554.4 L405.2,554.0 L423.0,553.9 L440.7,553.8 L458.5,553.9 L476.2,554.2 L493.9,554.4 L511.5,554.7 L528.9,555.0 L546.2,555.2 L563.2,555.3 L580.0,555.1 L596.7,554.8 L613.3,554.3 L630.0,553.6 L646.7,552.6 L663.3,551.3 L680.0,549.8 L696.7,548.0 L713.3,545.9 L730.0,543.6 L746.7,541.1 L763.3,538.3 L780.0,535.4 L796.7,532.4 L813.3,529.3 L830.0,526.1 L846.7,522.9 L863.3,519.7 L880.0,516.6 L896.7,513.5 L913.3,510.5 L930.0,507.6 L946.7,504.8 L963.3,502.1 L980.0,499.5 L996.7,496.9 L1013.3,494.1 L1030.0,491.3 L1046.7,488.3 L1063.3,485.2 L1080.0,482.0 L1096.7,478.6 L1113.3,475.1 L1130.0,471.4 L1146.7,467.5 L1163.3,463.4 L1180.0,459.2 L1196.7,454.9 L1213.3,450.5 L1230.0,446.0 L1246.7,441.5 L1263.3,437.0 L1280.0,432.6 L1296.7,428.3 L1313.3,424.2 L1330.0,420.4 L1346.7,416.9 L1363.3,413.8 L1380.0,411.2 L1396.8,409.0 L1413.7,407.2 L1430.8,406.0 L1448.1,405.2 L1465.4,404.9 L1482.8,405.0 L1500.3,405.5 L1517.8,406.5 L1535.3,407.7 L1552.7,409.2 L1570.2,411.0 L1587.5,412.9 L1604.7,414.8 L1621.8,416.8 L1638.8,418.7 L1655.6,420.5 L1672.1,422.1 L1688.4,423.6 L1704.5,424.9 L1720.3,425.9 L1735.7,426.8 L1750.9,427.3 L1765.6,427.6 L1780.0,427.7 L1794.2,427.7 L1808.4,427.5 L1822.7,427.3 L1836.9,427.0 L1851.0,426.7 L1865.0,426.4 L1878.9,426.1 L1892.6,425.8 L1906.1,425.7 L1919.4,425.6 L1932.3,425.5 L1945.0,425.6 L1957.3,425.7 L1969.3,425.9 L1980.8,426.1 L1991.9,426.5 L2002.4,426.8 L2012.5,427.2 L2022.0,427.6 L2030.9,428.0 L2039.2,428.5 L2046.9,428.9 L2053.8,429.2 L2060.0,422.2 L2060.0,679 Z" fill="rgb(120,117,112)" stroke="rgba(0,0,0,0.07)" stroke-width="1"/>
<path d="M-60.0,679 L-60.0,576.8 L-54.7,576.9 L-48.9,576.9 L-42.6,576.9 L-35.7,577.0 L-28.4,577.0 L-20.6,577.0 L-12.4,577.0 L-3.7,577.0 L5.4,577.0 L14.9,577.0 L24.8,576.9 L35.0,576.7 L45.6,576.5 L56.5,576.2 L67.7,575.9 L79.3,575.5 L91.1,574.9 L103.1,574.3 L115.4,573.6 L128.0,572.8 L140.7,571.9 L153.6,571.0 L166.7,570.0 L180.0,569.0 L193.6,567.9 L207.7,566.8 L222.3,565.7 L237.4,564.7 L252.9,563.8 L268.8,562.9 L285.0,562.1 L301.5,561.5 L318.3,561.1 L335.3,560.8 L352.6,560.7 L370.0,560.8 L387.6,561.0 L405.2,561.3 L423.0,561.7 L440.7,562.1 L458.5,562.4 L476.2,562.6 L493.9,562.7 L511.5,562.6 L528.9,562.3 L546.2,561.7 L563.2,560.8 L580.0,559.6 L596.7,558.1 L613.3,556.4 L630.0,554.3 L646.7,552.1 L663.3,549.6 L680.0,546.9 L696.7,544.1 L713.3,541.1 L730.0,538.1 L746.7,535.0 L763.3,531.9 L780.0,528.8 L796.7,525.7 L813.3,522.8 L830.0,519.9 L846.7,517.2 L863.3,514.5 L880.0,512.0 L896.7,509.6 L913.3,507.3 L930.0,505.1 L946.7,502.9 L963.3,500.6 L980.0,498.4 L996.7,496.0 L1013.3,493.3 L1030.0,490.4 L1046.7,487.3 L1063.3,483.8 L1080.0,480.1 L1096.7,476.2 L1113.3,472.0 L1130.0,467.6 L1146.7,463.0 L1163.3,458.3 L1180.0,453.4 L1196.7,448.6 L1213.3,443.7 L1230.0,439.0 L1246.7,434.3 L1263.3,429.9 L1280.0,425.8 L1296.7,422.0 L1313.3,418.5 L1330.0,415.5 L1346.7,413.0 L1363.3,411.0 L1380.0,409.6 L1396.8,408.7 L1413.7,408.3 L1430.8,408.3 L1448.1,408.9 L1465.4,409.7 L1482.8,411.0 L1500.3,412.5 L1517.8,414.1 L1535.3,416.0 L1552.7,417.8 L1570.2,419.7 L1587.5,421.5 L1604.7,423.2 L1621.8,424.7 L1638.8,426.1 L1655.6,427.3 L1672.1,428.3 L1688.4,429.1 L1704.5,429.7 L1720.3,430.1 L1735.7,430.3 L1750.9,430.4 L1765.6,430.4 L1780.0,430.2 L1794.2,430.0 L1808.4,429.7 L1822.7,429.5 L1836.9,429.4 L1851.0,429.3 L1865.0,429.4 L1878.9,429.5 L1892.6,429.6 L1906.1,429.9 L1919.4,430.3 L1932.3,430.7 L1945.0,431.2 L1957.3,431.7 L1969.3,432.2 L1980.8,432.7 L1991.9,433.3 L2002.4,433.8 L2012.5,434.2 L2022.0,434.7 L2030.9,435.1 L2039.2,435.4 L2046.9,435.7 L2053.8,436.0 L2060.0,423.1 L2060.0,679 Z" fill="rgb(112,109,104)" stroke="rgba(0,0,0,0.07)" stroke-width="1"/>
<path d="M-60.0,679 L-60.0,583.9 L-54.7,583.9 L-48.9,583.8 L-42.6,583.8 L-35.7,583.7 L-28.4,583.6 L-20.6,583.5 L-12.4,583.3 L-3.7,583.0 L5.4,582.7 L14.9,582.3 L24.8,581.9 L35.0,581.3 L45.6,580.7 L56.5,580.1 L67.7,579.3 L79.3,578.5 L91.1,577.6 L103.1,576.6 L115.4,575.7 L128.0,574.7 L140.7,573.6 L153.6,572.7 L166.7,571.7 L180.0,570.8 L193.6,569.9 L207.7,569.2 L222.3,568.6 L237.4,568.0 L252.9,567.7 L268.8,567.5 L285.0,567.4 L301.5,567.4 L318.3,567.6 L335.3,567.9 L352.6,568.2 L370.0,568.6 L387.6,568.8 L405.2,569.0 L423.0,569.0 L440.7,568.8 L458.5,568.4 L476.2,567.7 L493.9,566.6 L511.5,565.3 L528.9,563.6 L546.2,561.6 L563.2,559.4 L580.0,556.9 L596.7,554.2 L613.3,551.3 L630.0,548.4 L646.7,545.3 L663.3,542.2 L680.0,539.1 L696.7,536.1 L713.3,533.1 L730.0,530.2 L746.7,527.4 L763.3,524.8 L780.0,522.3 L796.7,520.0 L813.3,517.8 L830.0,515.7 L846.7,513.7 L863.3,511.8 L880.0,510.0 L896.7,508.1 L913.3,506.2 L930.0,504.2 L946.7,502.1 L963.3,499.9 L980.0,497.4 L996.7,494.7 L1013.3,491.6 L1030.0,488.2 L1046.7,484.4 L1063.3,480.3 L1080.0,476.0 L1096.7,471.5 L1113.3,466.8 L1130.0,461.9 L1146.7,457.1 L1163.3,452.2 L1180.0,447.4 L1196.7,442.8 L1213.3,438.4 L1230.0,434.2 L1246.7,430.4 L1263.3,426.9 L1280.0,423.9 L1296.7,421.2 L1313.3,419.0 L1330.0,417.3 L1346.7,416.1 L1363.3,415.4 L1380.0,415.1 L1396.8,415.3 L1413.7,415.8 L1430.8,416.7 L1448.1,417.8 L1465.4,419.1 L1482.8,420.5 L1500.3,421.9 L1517.8,423.4 L1535.3,424.7 L1552.7,426.0 L1570.2,427.2 L1587.5,428.2 L1604.7,429.0 L1621.8,429.8 L1638.8,430.3 L1655.6,430.8 L1672.1,431.2 L1688.4,431.5 L1704.5,431.7 L1720.3,431.9 L1735.7,432.1 L1750.9,432.2 L1765.6,432.3 L1780.0,432.3 L1794.2,432.4 L1808.4,432.5 L1822.7,432.8 L1836.9,433.1 L1851.0,433.5 L1865.0,433.9 L1878.9,434.4 L1892.6,435.0 L1906.1,435.6 L1919.4,436.1 L1932.3,436.7 L1945.0,437.2 L1957.3,437.6 L1969.3,438.0 L1980.8,438.3 L1991.9,438.5 L2002.4,438.6 L2012.5,438.7 L2022.0,438.7 L2030.9,438.6 L2039.2,438.5 L2046.9,438.3 L2053.8,438.1 L2060.0,424.1 L2060.0,679 Z" fill="rgb(104,101,97)" stroke="rgba(0,0,0,0.07)" stroke-width="1"/>
<path d="M-60.0,679 L-60.0,589.9 L-54.7,589.7 L-48.9,589.4 L-42.6,589.1 L-35.7,588.7 L-28.4,588.3 L-20.6,587.8 L-12.4,587.3 L-3.7,586.7 L5.4,586.0 L14.9,585.3 L24.8,584.5 L35.0,583.7 L45.6,582.8 L56.5,581.9 L67.7,581.0 L79.3,580.1 L91.1,579.2 L103.1,578.4 L115.4,577.5 L128.0,576.8 L140.7,576.1 L153.6,575.4 L166.7,574.9 L180.0,574.5 L193.6,574.1 L207.7,573.9 L222.3,573.8 L237.4,573.8 L252.9,573.9 L268.8,574.1 L285.0,574.3 L301.5,574.4 L318.3,574.5 L335.3,574.5 L352.6,574.4 L370.0,574.0 L387.6,573.4 L405.2,572.5 L423.0,571.3 L440.7,569.7 L458.5,567.9 L476.2,565.7 L493.9,563.3 L511.5,560.6 L528.9,557.7 L546.2,554.7 L563.2,551.5 L580.0,548.4 L596.7,545.2 L613.3,542.1 L630.0,539.1 L646.7,536.2 L663.3,533.5 L680.0,530.9 L696.7,528.5 L713.3,526.3 L730.0,524.3 L746.7,522.4 L763.3,520.6 L780.0,519.0 L796.7,517.5 L813.3,516.0 L830.0,514.4 L846.7,512.9 L863.3,511.3 L880.0,509.5 L896.7,507.6 L913.3,505.5 L930.0,503.3 L946.7,500.7 L963.3,498.0 L980.0,495.0 L996.7,491.7 L1013.3,488.1 L1030.0,484.2 L1046.7,480.0 L1063.3,475.7 L1080.0,471.2 L1096.7,466.7 L1113.3,462.2 L1130.0,457.8 L1146.7,453.5 L1163.3,449.4 L1180.0,445.5 L1196.7,441.9 L1213.3,438.6 L1230.0,435.7 L1246.7,433.1 L1263.3,430.9 L1280.0,429.1 L1296.7,427.6 L1313.3,426.5 L1330.0,425.7 L1346.7,425.2 L1363.3,425.1 L1380.0,425.2 L1396.8,425.5 L1413.7,426.0 L1430.8,426.6 L1448.1,427.3 L1465.4,428.0 L1482.8,428.6 L1500.3,429.2 L1517.8,429.7 L1535.3,430.1 L1552.7,430.4 L1570.2,430.6 L1587.5,430.8 L1604.7,431.0 L1621.8,431.2 L1638.8,431.4 L1655.6,431.7 L1672.1,432.0 L1688.4,432.4 L1704.5,432.8 L1720.3,433.4 L1735.7,433.9 L1750.9,434.5 L1765.6,435.0 L1780.0,435.5 L1794.2,436.0 L1808.4,436.6 L1822.7,437.1 L1836.9,437.7 L1851.0,438.2 L1865.0,438.7 L1878.9,439.2 L1892.6,439.6 L1906.1,439.8 L1919.4,440.0 L1932.3,440.0 L1945.0,440.0 L1957.3,439.7 L1969.3,439.4 L1980.8,439.0 L1991.9,438.4 L2002.4,437.8 L2012.5,437.1 L2022.0,436.4 L2030.9,435.7 L2039.2,434.9 L2046.9,434.2 L2053.8,433.5 L2060.0,425.0 L2060.0,679 Z" fill="rgb(96,93,89)" stroke="rgba(0,0,0,0.07)" stroke-width="1"/>
<path d="M-60.0,679 L-60.0,592.9 L-54.7,592.4 L-48.9,592.0 L-42.6,591.4 L-35.7,590.8 L-28.4,590.2 L-20.6,589.5 L-12.4,588.8 L-3.7,588.1 L5.4,587.4 L14.9,586.6 L24.8,585.8 L35.0,585.1 L45.6,584.3 L56.5,583.6 L67.7,583.0 L79.3,582.4 L91.1,581.8 L103.1,581.3 L115.4,580.9 L128.0,580.6 L140.7,580.3 L153.6,580.1 L166.7,580.0 L180.0,579.9 L193.6,579.8 L207.7,579.8 L222.3,579.8 L237.4,579.7 L252.9,579.6 L268.8,579.3 L285.0,578.9 L301.5,578.3 L318.3,577.4 L335.3,576.3 L352.6,574.9 L370.0,573.2 L387.6,571.1 L405.2,568.8 L423.0,566.2 L440.7,563.3 L458.5,560.3 L476.2,557.2 L493.9,554.0 L511.5,550.7 L528.9,547.5 L546.2,544.4 L563.2,541.5 L580.0,538.7 L596.7,536.1 L613.3,533.7 L630.0,531.5 L646.7,529.5 L663.3,527.8 L680.0,526.2 L696.7,524.8 L713.3,523.5 L730.0,522.3 L746.7,521.1 L763.3,519.9 L780.0,518.7 L796.7,517.5 L813.3,516.1 L830.0,514.5 L846.7,512.8 L863.3,510.9 L880.0,508.7 L896.7,506.4 L913.3,503.8 L930.0,501.0 L946.7,498.0 L963.3,494.9 L980.0,491.7 L996.7,488.2 L1013.3,484.6 L1030.0,480.9 L1046.7,477.0 L1063.3,473.2 L1080.0,469.4 L1096.7,465.8 L1113.3,462.3 L1130.0,458.9 L1146.7,455.8 L1163.3,453.0 L1180.0,450.3 L1196.7,447.9 L1213.3,445.8 L1230.0,443.9 L1246.7,442.3 L1263.3,440.8 L1280.0,439.5 L1296.7,438.4 L1313.3,437.4 L1330.0,436.5 L1346.7,435.8 L1363.3,435.1 L1380.0,434.6 L1396.8,434.1 L1413.7,433.7 L1430.8,433.3 L1448.1,432.8 L1465.4,432.4 L1482.8,432.0 L1500.3,431.6 L1517.8,431.2 L1535.3,430.9 L1552.7,430.6 L1570.2,430.5 L1587.5,430.5 L1604.7,430.7 L1621.8,431.0 L1638.8,431.5 L1655.6,432.1 L1672.1,432.9 L1688.4,433.8 L1704.5,434.7 L1720.3,435.7 L1735.7,436.7 L1750.9,437.6 L1765.6,438.4 L1780.0,439.0 L1794.2,439.5 L1808.4,440.0 L1822.7,440.3 L1836.9,440.5 L1851.0,440.6 L1865.0,440.5 L1878.9,440.3 L1892.6,439.9 L1906.1,439.3 L1919.4,438.6 L1932.3,437.7 L1945.0,436.7 L1957.3,435.6 L1969.3,434.4 L1980.8,433.2 L1991.9,431.9 L2002.4,430.7 L2012.5,429.4 L2022.0,428.2 L2030.9,427.0 L2039.2,426.0 L2046.9,425.0 L2053.8,424.1 L2060.0,425.9 L2060.0,679 Z" fill="rgb(88,85,81)" stroke="rgba(0,0,0,0.07)" stroke-width="1"/>
<path d="M-60.0,679 L-60.0,600.9 L-54.7,600.6 L-48.9,600.3 L-42.6,599.9 L-35.7,599.6 L-28.4,599.3 L-20.6,599.0 L-12.4,598.7 L-3.7,598.4 L5.4,598.1 L14.9,597.9 L24.8,597.7 L35.0,597.6 L45.6,597.5 L56.5,597.4 L67.7,597.4 L79.3,597.5 L91.1,597.5 L103.1,597.6 L115.4,597.7 L128.0,597.8 L140.7,597.9 L153.6,597.9 L166.7,597.9 L180.0,597.8 L193.6,597.5 L207.7,597.2 L222.3,596.6 L237.4,595.9 L252.9,595.0 L268.8,593.8 L285.0,592.3 L301.5,590.5 L318.3,588.5 L335.3,586.1 L352.6,583.6 L370.0,580.8 L387.6,577.9 L405.2,574.9 L423.0,571.8 L440.7,568.7 L458.5,565.7 L476.2,562.8 L493.9,560.1 L511.5,557.6 L528.9,555.4 L546.2,553.3 L563.2,551.6 L580.0,550.0 L596.7,548.7 L613.3,547.5 L630.0,546.5 L646.7,545.7 L663.3,545.0 L680.0,544.3 L696.7,543.6 L713.3,542.8 L730.0,542.0 L746.7,541.1 L763.3,540.0 L780.0,538.8 L796.7,537.4 L813.3,535.8 L830.0,534.0 L846.7,532.0 L863.3,529.8 L880.0,527.5 L896.7,525.1 L913.3,522.6 L930.0,520.1 L946.7,517.5 L963.3,515.0 L980.0,512.5 L996.7,510.1 L1013.3,507.6 L1030.0,505.2 L1046.7,502.9 L1063.3,500.7 L1080.0,498.6 L1096.7,496.7 L1113.3,494.8 L1130.0,493.2 L1146.7,491.6 L1163.3,490.2 L1180.0,488.8 L1196.7,487.5 L1213.3,486.2 L1230.0,484.9 L1246.7,483.6 L1263.3,482.3 L1280.0,480.9 L1296.7,479.5 L1313.3,478.0 L1330.0,476.4 L1346.7,474.9 L1363.3,473.3 L1380.0,471.8 L1396.8,470.3 L1413.7,468.9 L1430.8,467.6 L1448.1,466.3 L1465.4,465.2 L1482.8,464.2 L1500.3,463.3 L1517.8,462.7 L1535.3,462.3 L1552.7,462.2 L1570.2,462.2 L1587.5,462.6 L1604.7,463.1 L1621.8,463.8 L1638.8,464.7 L1655.6,465.7 L1672.1,466.8 L1688.4,467.9 L1704.5,468.9 L1720.3,469.8 L1735.7,470.6 L1750.9,471.2 L1765.6,471.6 L1780.0,471.7 L1794.2,471.6 L1808.4,471.3 L1822.7,470.8 L1836.9,470.2 L1851.0,469.3 L1865.0,468.3 L1878.9,467.2 L1892.6,465.9 L1906.1,464.5 L1919.4,463.0 L1932.3,461.5 L1945.0,459.9 L1957.3,458.4 L1969.3,456.8 L1980.8,455.4 L1991.9,454.0 L2002.4,452.7 L2012.5,451.5 L2022.0,450.4 L2030.9,449.4 L2039.2,448.6 L2046.9,447.8 L2053.8,447.2 L2060.0,459.1 L2060.0,679 Z" fill="rgb(79,77,73)" stroke="rgba(0,0,0,0.07)" stroke-width="1"/>
<path d="M-60.0,679 L-60.0,608.9 L-54.7,608.8 L-48.9,608.8 L-42.6,608.9 L-35.7,609.0 L-28.4,609.1 L-20.6,609.2 L-12.4,609.4 L-3.7,609.7 L5.4,609.9 L14.9,610.3 L24.8,610.6 L35.0,611.0 L45.6,611.3 L56.5,611.7 L67.7,612.0 L79.3,612.3 L91.1,612.5 L103.1,612.7 L115.4,612.8 L128.0,612.7 L140.7,612.5 L153.6,612.1 L166.7,611.5 L180.0,610.8 L193.6,609.8 L207.7,608.6 L222.3,607.1 L237.4,605.4 L252.9,603.4 L268.8,601.2 L285.0,598.8 L301.5,596.2 L318.3,593.5 L335.3,590.7 L352.6,587.9 L370.0,585.1 L387.6,582.3 L405.2,579.8 L423.0,577.4 L440.7,575.2 L458.5,573.3 L476.2,571.7 L493.9,570.4 L511.5,569.3 L528.9,568.4 L546.2,567.7 L563.2,567.2 L580.0,566.8 L596.7,566.5 L613.3,566.2 L630.0,565.9 L646.7,565.6 L663.3,565.2 L680.0,564.6 L696.7,564.0 L713.3,563.1 L730.0,562.1 L746.7,561.0 L763.3,559.6 L780.0,558.1 L796.7,556.4 L813.3,554.7 L830.0,552.8 L846.7,551.0 L863.3,549.1 L880.0,547.2 L896.7,545.5 L913.3,543.8 L930.0,542.2 L946.7,540.8 L963.3,539.6 L980.0,538.5 L996.7,537.6 L1013.3,536.7 L1030.0,535.8 L1046.7,535.1 L1063.3,534.3 L1080.0,533.6 L1096.7,532.8 L1113.3,532.1 L1130.0,531.2 L1146.7,530.3 L1163.3,529.2 L1180.0,528.0 L1196.7,526.6 L1213.3,525.1 L1230.0,523.4 L1246.7,521.4 L1263.3,519.4 L1280.0,517.2 L1296.7,514.8 L1313.3,512.4 L1330.0,510.0 L1346.7,507.6 L1363.3,505.3 L1380.0,503.1 L1396.8,501.1 L1413.7,499.3 L1430.8,497.7 L1448.1,496.4 L1465.4,495.3 L1482.8,494.5 L1500.3,494.0 L1517.8,493.8 L1535.3,493.9 L1552.7,494.3 L1570.2,494.8 L1587.5,495.5 L1604.7,496.3 L1621.8,497.2 L1638.8,498.1 L1655.6,499.0 L1672.1,499.7 L1688.4,500.3 L1704.5,500.8 L1720.3,501.0 L1735.7,500.9 L1750.9,500.6 L1765.6,500.1 L1780.0,499.3 L1794.2,498.3 L1808.4,497.1 L1822.7,495.8 L1836.9,494.4 L1851.0,492.9 L1865.0,491.3 L1878.9,489.6 L1892.6,488.0 L1906.1,486.4 L1919.4,484.9 L1932.3,483.5 L1945.0,482.1 L1957.3,480.9 L1969.3,479.8 L1980.8,478.9 L1991.9,478.1 L2002.4,477.5 L2012.5,477.0 L2022.0,476.6 L2030.9,476.3 L2039.2,476.1 L2046.9,475.9 L2053.8,475.9 L2060.0,492.3 L2060.0,679 Z" fill="rgb(71,68,64)" stroke="rgba(0,0,0,0.07)" stroke-width="1"/>
<path d="M-60.0,679 L-60.0,617.7 L-54.7,617.9 L-48.9,618.2 L-42.6,618.6 L-35.7,619.0 L-28.4,619.4 L-20.6,619.9 L-12.4,620.4 L-3.7,620.9 L5.4,621.4 L14.9,621.9 L24.8,622.4 L35.0,622.8 L45.6,623.1 L56.5,623.4 L67.7,623.5 L79.3,623.5 L91.1,623.4 L103.1,623.1 L115.4,622.6 L128.0,621.9 L140.7,621.1 L153.6,620.0 L166.7,618.7 L180.0,617.2 L193.6,615.5 L207.7,613.6 L222.3,611.6 L237.4,609.3 L252.9,607.0 L268.8,604.6 L285.0,602.2 L301.5,599.8 L318.3,597.5 L335.3,595.4 L352.6,593.4 L370.0,591.7 L387.6,590.3 L405.2,589.1 L423.0,588.2 L440.7,587.5 L458.5,587.1 L476.2,587.0 L493.9,586.9 L511.5,587.0 L528.9,587.1 L546.2,587.3 L563.2,587.4 L580.0,587.4 L596.7,587.3 L613.3,587.1 L630.0,586.8 L646.7,586.3 L663.3,585.6 L680.0,584.8 L696.7,583.8 L713.3,582.6 L730.0,581.4 L746.7,580.1 L763.3,578.7 L780.0,577.3 L796.7,576.0 L813.3,574.7 L830.0,573.5 L846.7,572.5 L863.3,571.6 L880.0,570.9 L896.7,570.3 L913.3,570.0 L930.0,569.8 L946.7,569.8 L963.3,570.0 L980.0,570.2 L996.7,570.4 L1013.3,570.6 L1030.0,570.7 L1046.7,570.7 L1063.3,570.5 L1080.0,570.1 L1096.7,569.4 L1113.3,568.6 L1130.0,567.4 L1146.7,566.0 L1163.3,564.3 L1180.0,562.4 L1196.7,560.2 L1213.3,557.7 L1230.0,555.1 L1246.7,552.3 L1263.3,549.4 L1280.0,546.5 L1296.7,543.6 L1313.3,540.7 L1330.0,538.0 L1346.7,535.5 L1363.3,533.2 L1380.0,531.2 L1396.8,529.5 L1413.7,528.1 L1430.8,527.0 L1448.1,526.3 L1465.4,525.8 L1482.8,525.7 L1500.3,525.8 L1517.8,526.1 L1535.3,526.5 L1552.7,527.0 L1570.2,527.6 L1587.5,528.2 L1604.7,528.7 L1621.8,529.1 L1638.8,529.3 L1655.6,529.3 L1672.1,529.2 L1688.4,528.8 L1704.5,528.2 L1720.3,527.4 L1735.7,526.4 L1750.9,525.2 L1765.6,523.9 L1780.0,522.5 L1794.2,521.0 L1808.4,519.5 L1822.7,518.0 L1836.9,516.5 L1851.0,515.1 L1865.0,513.8 L1878.9,512.6 L1892.6,511.5 L1906.1,510.7 L1919.4,509.9 L1932.3,509.4 L1945.0,509.1 L1957.3,508.9 L1969.3,508.8 L1980.8,508.9 L1991.9,509.1 L2002.4,509.4 L2012.5,509.8 L2022.0,510.2 L2030.9,510.6 L2039.2,511.1 L2046.9,511.6 L2053.8,512.1 L2060.0,525.5 L2060.0,679 Z" fill="rgb(62,60,56)" stroke="rgba(0,0,0,0.07)" stroke-width="1"/>
<path d="M-60.0,679 L-60.0,625.9 L-54.7,626.2 L-48.9,626.5 L-42.6,626.9 L-35.7,627.3 L-28.4,627.8 L-20.6,628.2 L-12.4,628.7 L-3.7,629.0 L5.4,629.4 L14.9,629.6 L24.8,629.8 L35.0,629.9 L45.6,629.9 L56.5,629.7 L67.7,629.4 L79.3,628.9 L91.1,628.2 L103.1,627.4 L115.4,626.5 L128.0,625.4 L140.7,624.1 L153.6,622.7 L166.7,621.2 L180.0,619.6 L193.6,617.9 L207.7,616.2 L222.3,614.4 L237.4,612.7 L252.9,611.1 L268.8,609.6 L285.0,608.2 L301.5,607.1 L318.3,606.2 L335.3,605.6 L352.6,605.2 L370.0,605.1 L387.6,605.2 L405.2,605.5 L423.0,605.9 L440.7,606.4 L458.5,607.0 L476.2,607.6 L493.9,608.1 L511.5,608.5 L528.9,608.7 L546.2,608.8 L563.2,608.7 L580.0,608.5 L596.7,608.1 L613.3,607.5 L630.0,606.8 L646.7,605.9 L663.3,605.0 L680.0,604.0 L696.7,603.0 L713.3,602.0 L730.0,601.1 L746.7,600.3 L763.3,599.6 L780.0,599.0 L796.7,598.6 L813.3,598.5 L830.0,598.5 L846.7,598.7 L863.3,599.1 L880.0,599.6 L896.7,600.3 L913.3,601.0 L930.0,601.8 L946.7,602.6 L963.3,603.4 L980.0,604.0 L996.7,604.4 L1013.3,604.6 L1030.0,604.5 L1046.7,604.0 L1063.3,603.3 L1080.0,602.2 L1096.7,600.7 L1113.3,598.9 L1130.0,596.9 L1146.7,594.5 L1163.3,591.9 L1180.0,589.1 L1196.7,586.2 L1213.3,583.1 L1230.0,580.1 L1246.7,577.0 L1263.3,574.1 L1280.0,571.3 L1296.7,568.6 L1313.3,566.3 L1330.0,564.1 L1346.7,562.3 L1363.3,560.8 L1380.0,559.6 L1396.8,558.7 L1413.7,558.1 L1430.8,557.8 L1448.1,557.7 L1465.4,557.7 L1482.8,557.9 L1500.3,558.1 L1517.8,558.3 L1535.3,558.5 L1552.7,558.5 L1570.2,558.5 L1587.5,558.2 L1604.7,557.8 L1621.8,557.2 L1638.8,556.4 L1655.6,555.5 L1672.1,554.4 L1688.4,553.2 L1704.5,551.9 L1720.3,550.6 L1735.7,549.3 L1750.9,548.0 L1765.6,546.7 L1780.0,545.5 L1794.2,544.5 L1808.4,543.5 L1822.7,542.7 L1836.9,542.1 L1851.0,541.7 L1865.0,541.5 L1878.9,541.5 L1892.6,541.6 L1906.1,542.0 L1919.4,542.5 L1932.3,543.2 L1945.0,543.9 L1957.3,544.8 L1969.3,545.7 L1980.8,546.6 L1991.9,547.6 L2002.4,548.5 L2012.5,549.5 L2022.0,550.3 L2030.9,551.2 L2039.2,551.9 L2046.9,552.6 L2053.8,553.2 L2060.0,558.7 L2060.0,679 Z" fill="rgb(53,51,48)" stroke="rgba(0,0,0,0.07)" stroke-width="1"/>
<path d="M-60.0,679 L-60.0,630.6 L-54.7,630.7 L-48.9,630.9 L-42.6,631.1 L-35.7,631.3 L-28.4,631.6 L-20.6,631.8 L-12.4,631.9 L-3.7,632.0 L5.4,632.1 L14.9,632.0 L24.8,631.9 L35.0,631.7 L45.6,631.4 L56.5,631.0 L67.7,630.5 L79.3,629.9 L91.1,629.2 L103.1,628.5 L115.4,627.7 L128.0,626.9 L140.7,626.1 L153.6,625.3 L166.7,624.5 L180.0,623.7 L193.6,622.9 L207.7,622.3 L222.3,621.8 L237.4,621.4 L252.9,621.3 L268.8,621.3 L285.0,621.6 L301.5,622.0 L318.3,622.6 L335.3,623.4 L352.6,624.3 L370.0,625.3 L387.6,626.3 L405.2,627.2 L423.0,628.1 L440.7,628.8 L458.5,629.4 L476.2,629.8 L493.9,629.9 L511.5,629.9 L528.9,629.7 L546.2,629.3 L563.2,628.7 L580.0,628.1 L596.7,627.4 L613.3,626.7 L630.0,626.0 L646.7,625.3 L663.3,624.7 L680.0,624.2 L696.7,623.9 L713.3,623.7 L730.0,623.7 L746.7,624.0 L763.3,624.4 L780.0,625.0 L796.7,625.8 L813.3,626.7 L830.0,627.7 L846.7,628.8 L863.3,629.9 L880.0,631.0 L896.7,632.0 L913.3,632.9 L930.0,633.5 L946.7,634.0 L963.3,634.2 L980.0,634.1 L996.7,633.7 L1013.3,632.9 L1030.0,631.8 L1046.7,630.3 L1063.3,628.4 L1080.0,626.3 L1096.7,623.9 L1113.3,621.3 L1130.0,618.6 L1146.7,615.7 L1163.3,612.9 L1180.0,610.0 L1196.7,607.2 L1213.3,604.5 L1230.0,602.0 L1246.7,599.7 L1263.3,597.6 L1280.0,595.8 L1296.7,594.2 L1313.3,592.9 L1330.0,591.9 L1346.7,591.1 L1363.3,590.5 L1380.0,590.1 L1396.8,589.8 L1413.7,589.7 L1430.8,589.6 L1448.1,589.5 L1465.4,589.4 L1482.8,589.2 L1500.3,588.9 L1517.8,588.4 L1535.3,587.7 L1552.7,586.9 L1570.2,585.9 L1587.5,584.8 L1604.7,583.5 L1621.8,582.2 L1638.8,580.9 L1655.6,579.6 L1672.1,578.4 L1688.4,577.2 L1704.5,576.2 L1720.3,575.4 L1735.7,574.7 L1750.9,574.3 L1765.6,574.0 L1780.0,573.9 L1794.2,574.0 L1808.4,574.3 L1822.7,574.8 L1836.9,575.5 L1851.0,576.4 L1865.0,577.4 L1878.9,578.6 L1892.6,579.9 L1906.1,581.2 L1919.4,582.6 L1932.3,584.0 L1945.0,585.3 L1957.3,586.6 L1969.3,587.8 L1980.8,589.0 L1991.9,590.0 L2002.4,591.0 L2012.5,591.8 L2022.0,592.5 L2030.9,593.2 L2039.2,593.7 L2046.9,594.1 L2053.8,594.5 L2060.0,592.0 L2060.0,679 Z" fill="rgb(44,42,39)" stroke="rgba(0,0,0,0.07)" stroke-width="1"/>
<path d="M-60.0,679 L-60.0,630.5 L-54.7,630.5 L-48.9,630.6 L-42.6,630.7 L-35.7,630.8 L-28.4,630.9 L-20.6,631.0 L-12.4,631.1 L-3.7,631.2 L5.4,631.2 L14.9,631.3 L24.8,631.4 L35.0,631.4 L45.6,631.5 L56.5,631.5 L67.7,631.6 L79.3,631.7 L91.1,631.8 L103.1,632.0 L115.4,632.3 L128.0,632.6 L140.7,633.0 L153.6,633.5 L166.7,634.0 L180.0,634.7 L193.6,635.4 L207.7,636.3 L222.3,637.2 L237.4,638.3 L252.9,639.6 L268.8,640.9 L285.0,642.3 L301.5,643.7 L318.3,645.1 L335.3,646.4 L352.6,647.6 L370.0,648.6 L387.6,649.5 L405.2,650.1 L423.0,650.5 L440.7,650.6 L458.5,650.6 L476.2,650.3 L493.9,649.9 L511.5,649.4 L528.9,648.8 L546.2,648.2 L563.2,647.6 L580.0,647.2 L596.7,646.8 L613.3,646.6 L630.0,646.5 L646.7,646.7 L663.3,647.0 L680.0,647.5 L696.7,648.2 L713.3,649.1 L730.0,650.1 L746.7,651.3 L763.3,652.5 L780.0,653.8 L796.7,655.1 L813.3,656.3 L830.0,657.4 L846.7,658.3 L863.3,659.1 L880.0,659.6 L896.7,659.8 L913.3,659.7 L930.0,659.4 L946.7,658.7 L963.3,657.6 L980.0,656.3 L996.7,654.7 L1013.3,652.8 L1030.0,650.7 L1046.7,648.4 L1063.3,646.0 L1080.0,643.5 L1096.7,641.0 L1113.3,638.5 L1130.0,636.1 L1146.7,633.8 L1163.3,631.7 L1180.0,629.8 L1196.7,628.1 L1213.3,626.7 L1230.0,625.4 L1246.7,624.4 L1263.3,623.6 L1280.0,623.0 L1296.7,622.6 L1313.3,622.2 L1330.0,622.0 L1346.7,621.8 L1363.3,621.6 L1380.0,621.4 L1396.8,621.2 L1413.7,620.8 L1430.8,620.3 L1448.1,619.7 L1465.4,618.9 L1482.8,617.9 L1500.3,616.8 L1517.8,615.6 L1535.3,614.3 L1552.7,612.9 L1570.2,611.6 L1587.5,610.3 L1604.7,609.1 L1621.8,608.1 L1638.8,607.2 L1655.6,606.6 L1672.1,606.3 L1688.4,606.2 L1704.5,606.4 L1720.3,606.8 L1735.7,607.5 L1750.9,608.4 L1765.6,609.4 L1780.0,610.6 L1794.2,611.9 L1808.4,613.4 L1822.7,614.9 L1836.9,616.6 L1851.0,618.2 L1865.0,619.9 L1878.9,621.5 L1892.6,623.1 L1906.1,624.6 L1919.4,625.9 L1932.3,627.2 L1945.0,628.2 L1957.3,629.2 L1969.3,630.0 L1980.8,630.6 L1991.9,631.2 L2002.4,631.6 L2012.5,631.9 L2022.0,632.1 L2030.9,632.2 L2039.2,632.3 L2046.9,632.3 L2053.8,632.3 L2060.0,625.2 L2060.0,679 Z" fill="rgb(36,34,31)" stroke="rgba(0,0,0,0.07)" stroke-width="1"/>
<line x1="180" y1="547.5" x2="180" y2="515.5" stroke="#B9B4AA" stroke-width="1.5"/>
<circle cx="180" cy="553.5" r="4" fill="#161512"/>
<text x="190" y="507.5" font-family="Helvetica Neue, Helvetica, Arial, sans-serif" font-size="40" font-weight="500" fill="#161512">67<tspan dx="6" font-size="19" font-weight="400" fill="#77736B">tok/s</tspan></text>
<text x="190" y="535.5" font-family="Helvetica Neue, Helvetica, Arial, sans-serif" font-size="16" letter-spacing="2.5" fill="#8C877E">C1 DECODE</text>
<line x1="580" y1="506.6" x2="580" y2="474.6" stroke="#B9B4AA" stroke-width="1.5"/>
<circle cx="580" cy="512.6" r="4" fill="#161512"/>
<text x="590" y="466.6" font-family="Helvetica Neue, Helvetica, Arial, sans-serif" font-size="40" font-weight="500" fill="#161512">120<tspan dx="6" font-size="19" font-weight="400" fill="#77736B">tok/s</tspan></text>
<text x="590" y="494.6" font-family="Helvetica Neue, Helvetica, Arial, sans-serif" font-size="16" letter-spacing="2.5" fill="#8C877E">C2 DECODE</text>
<line x1="1380" y1="339.1" x2="1380" y2="307.1" stroke="#B9B4AA" stroke-width="1.5"/>
<circle cx="1380" cy="345.1" r="4" fill="#161512"/>
<text x="1390" y="299.1" font-family="Helvetica Neue, Helvetica, Arial, sans-serif" font-size="40" font-weight="500" fill="#161512">1,589<tspan dx="6" font-size="19" font-weight="400" fill="#77736B">tok/s</tspan></text>
<text x="1390" y="327.1" font-family="Helvetica Neue, Helvetica, Arial, sans-serif" font-size="16" letter-spacing="2.5" fill="#8C877E">PREFILL</text>
<path transform="translate(130,96) scale(7.0833)" fill="#161512" fill-rule="evenodd" d="M12.604 1.34c.393.69.784 1.382 1.174 2.075a.18.18 0 00.157.091h5.552c.174 0 .322.11.446.327l1.454 2.57c.19.337.24.478.024.837-.26.43-.513.864-.76 1.3l-.367.658c-.106.196-.223.28-.04.512l2.652 4.637c.172.301.111.494-.043.77-.437.785-.882 1.564-1.335 2.34-.159.272-.352.375-.68.37-.777-.016-1.552-.01-2.327.016a.099.099 0 00-.081.05 575.097 575.097 0 01-2.705 4.74c-.169.293-.38.363-.725.364-.997.003-2.002.004-3.017.002a.537.537 0 01-.465-.271l-1.335-2.323a.09.09 0 00-.083-.049H4.982c-.285.03-.553-.001-.805-.092l-1.603-2.77a.543.543 0 01-.002-.54l1.207-2.12a.198.198 0 000-.197 550.951 550.951 0 01-1.875-3.272l-.79-1.395c-.16-.31-.173-.496.095-.965.465-.813.927-1.625 1.387-2.436.132-.234.304-.334.584-.335a338.3 338.3 0 012.589-.001.124.124 0 00.107-.063l2.806-4.895a.488.488 0 01.422-.246c.524-.001 1.053 0 1.583-.006L11.704 1c.341-.003.724.032.9.34zm-3.432.403a.06.06 0 00-.052.03L6.254 6.788a.157.157 0 01-.135.078H3.253c-.056 0-.07.025-.041.074l5.81 10.156c.025.042.013.062-.034.063l-2.795.015a.218.218 0 00-.2.116l-1.32 2.31c-.044.078-.021.118.068.118l5.716.008c.046 0 .08.02.104.061l1.403 2.454c.046.081.092.082.139 0l5.006-8.76.783-1.382a.055.055 0 01.096 0l1.424 2.53a.122.122 0 00.107.062l2.763-.02a.04.04 0 00.035-.02.041.041 0 000-.04l-2.9-5.086a.108.108 0 010-.113l.293-.507 1.12-1.977c.024-.041.012-.062-.035-.062H9.2c-.059 0-.073-.026-.043-.077l1.434-2.505a.107.107 0 000-.114L9.225 1.774a.06.06 0 00-.053-.031zm6.29 8.02c.046 0 .058.02.034.06l-.832 1.465-2.613 4.585a.056.056 0 01-.05.029.058.058 0 01-.05-.029L8.498 9.841c-.02-.034-.01-.052.028-.054l.216-.012 6.722-.012z"/>
<line x1="358" y1="116" x2="358" y2="246" stroke="#C9C4BA" stroke-width="2"/>
<path transform="translate(400,20.3) scale(13.5)" fill="#161512" d="M20.42 7.345v9.18h1.651v-9.18zM0 7.475v1.737h1.737V7.474zm9.78.352v6.053c0 .513.044.945.13 1.292.087.34.235.618.44.828.203.21.475.359.803.451.334.093.754.136 1.255.136h.216v-1.533c-.24 0-.445-.012-.593-.037a.672.672 0 0 1-.39-.173.693.693 0 0 1-.173-.377 4.002 4.002 0 0 1-.037-.606v-2.182h1.193v-1.416h-1.193V7.827zm-3.505 2.312c-.396 0-.76.08-1.082.241-.327.161-.6.384-.822.668l-.087.117v-.902H2.658v6.256h1.639v-3.214c.018-.588.16-1.02.433-1.299.29-.297.642-.445 1.044-.445.476 0 .841.149 1.082.433.235.284.359.686.359 1.2v3.324h1.663V12.97c.006-.89-.229-1.595-.686-2.09-.458-.495-1.1-.742-1.917-.742zm10.065.006a3.252 3.252 0 0 0-2.306.946c-.29.29-.525.637-.692 1.033a3.145 3.145 0 0 0-.254 1.273c0 .452.08.878.241 1.274.161.395.39.742.674 1.032.284.29.637.526 1.045.693.408.173.86.26 1.342.26 1.397 0 2.262-.637 2.782-1.23l-1.187-.904c-.248.297-.841.699-1.583.699-.464 0-.847-.105-1.138-.321a1.588 1.588 0 0 1-.593-.872l-.019-.056h4.915v-.587c0-.451-.08-.872-.235-1.267a3.393 3.393 0 0 0-.661-1.033 3.013 3.013 0 0 0-1.02-.692 3.345 3.345 0 0 0-1.311-.248zm-16.297.118v6.256h1.651v-6.256zm16.278 1.286c1.132 0 1.664.797 1.664 1.255l-3.32.006c0-.458.525-1.255 1.656-1.261zm7.073 3.814a.606.606 0 0 0-.606.606.606.606 0 0 0 .606.606.606.606 0 0 0 .606-.606.606.606 0 0 0-.606-.606zm-.008.105a.5.5 0 0 1 .002 0 .5.5 0 0 1 .5.501.5.5 0 0 1-.5.5.5.5 0 0 1-.5-.5.5.5 0 0 1 .498-.5zm-.233.155v.699h.13v-.285h.093l.173.285h.136l-.18-.297a.191.191 0 0 0 .118-.056c.03-.03.05-.074.05-.136 0-.068-.02-.117-.063-.154-.037-.038-.105-.056-.185-.056zm.13.099h.154c.019 0 .037.006.056.012a.064.064 0 0 1 .037.031c.013.013.012.031.012.056a.124.124 0 0 1-.012.055.164.164 0 0 1-.037.031c-.019.006-.037.013-.056.013h-.154Z"/>
</svg>